<?xml version="1.0" standalone="no"?>
<!DOCTYPE svg PUBLIC "-//W3C//DTD SVG 1.1//EN" "http://www.w3.org/Graphics/SVG/1.1/DTD/svg11.dtd" >
<svg xmlns="http://www.w3.org/2000/svg">
<metadata>
<json>
<![CDATA[
{
	"fontFamily": "iconFont",
	"description": "Font generated by IcoMoon.",
	"majorVersion": 0,
	"version": "Version 1.0",
	"fontId": "iconFont",
	"psName": "iconFont",
	"subFamily": "Regular",
	"fullName": "iconFont"
}
]]>
</json>
</metadata>
<defs>
<font id="iconFont" horiz-adv-x="1024">
<font-face units-per-em="1024" ascent="960" descent="-64" />
<missing-glyph horiz-adv-x="1024" />
<glyph unicode="&#x20;" horiz-adv-x="512" d="" />
<glyph unicode="&#xe900;" glyph-name="icon-add" data-tags="icon-add" d="M917.333 490.667h-362.667v362.667h-85.333v-362.667h-362.667v-85.333h362.667v-362.667h85.333v362.667h362.667z" />
<glyph unicode="&#xe901;" glyph-name="icon-minus" data-tags="icon-minus" d="M106.667 490.667h810.667v-85.333h-810.667v85.333z" />
<glyph unicode="&#xe902;" glyph-name="icon-success" data-tags="icon-success" d="M512 917.333c-260.267 0-469.333-209.067-469.333-469.333s209.067-469.333 469.333-469.333 469.333 209.067 469.333 469.333-209.067 469.333-469.333 469.333zM454.4 266.667l-181.333 179.2 59.733 59.733 121.6-119.467 238.933 243.2 59.733-59.733-298.667-302.933z" />
<glyph unicode="&#xe903;" glyph-name="icon-successful" data-tags="icon-successful" d="M512 917.333c-260.267 0-469.333-209.067-469.333-469.333s209.067-469.333 469.333-469.333 469.333 209.067 469.333 469.333-209.067 469.333-469.333 469.333zM512 64c-211.2 0-384 172.8-384 384s172.8 384 384 384 384-172.8 384-384-172.8-384-384-384zM452.267 386.133l-121.6 119.467-59.733-59.733 183.467-179.2 298.667 302.933-61.867 59.733z" />
<glyph unicode="&#xe904;" glyph-name="icon-approval" data-tags="icon-approval" d="M902.4 780.8l-544-544-241.067 241.067-59.733-59.733 241.067-241.067 59.733-61.867 603.733 603.733z" />
<glyph unicode="&#xe905;" glyph-name="icon-error" data-tags="icon-error" d="M512 913.067c-260.267 0-469.333-209.067-469.333-469.333s209.067-469.333 469.333-469.333 469.333 209.067 469.333 469.333-209.067 469.333-469.333 469.333zM693.333 322.133l-59.733-59.733-121.6 119.467-121.6-121.6-59.733 59.733 121.6 121.6-121.6 121.6 59.733 59.733 121.6-121.6 121.6 121.6 59.733-59.733-121.6-121.6 121.6-119.467z" />
<glyph unicode="&#xe906;" glyph-name="icon-close" data-tags="icon-close" d="M633.6 622.933l-121.6-119.467-121.6 119.467-59.733-59.733 121.6-119.467-121.6-121.6 59.733-59.733 121.6 119.467 121.6-119.467 59.733 59.733-121.6 121.6 121.6 119.467zM512 917.333c-260.267 0-469.333-209.067-469.333-469.333s209.067-469.333 469.333-469.333 469.333 209.067 469.333 469.333-209.067 469.333-469.333 469.333zM512 64c-211.2 0-384 172.8-384 384s172.8 384 384 384 384-172.8 384-384-172.8-384-384-384z" />
<glyph unicode="&#xe907;" glyph-name="icon-not-through" data-tags="icon-not-through" d="M900.267 780.8l-59.733 61.867-328.533-334.933-330.667 334.933-59.733-61.867 328.533-332.8-328.533-334.933 59.733-59.733 330.667 332.8 328.533-332.8 59.733 59.733-328.533 334.933z" />
<glyph unicode="&#xe908;" glyph-name="icon-prompt" data-tags="icon-prompt" d="M512 917.333c-260.267 0-469.333-209.067-469.333-469.333s209.067-469.333 469.333-469.333 469.333 209.067 469.333 469.333-209.067 469.333-469.333 469.333zM554.667 234.667h-85.333v85.333h85.333v-85.333zM554.667 405.333h-85.333v256h85.333v-256z" />
<glyph unicode="&#xe909;" glyph-name="icon-warning" data-tags="icon-warning" d="M512 832c211.2 0 384-172.8 384-384s-172.8-384-384-384-384 172.8-384 384 172.8 384 384 384zM512 917.333c-260.267 0-469.333-209.067-469.333-469.333s209.067-469.333 469.333-469.333 469.333 209.067 469.333 469.333-209.067 469.333-469.333 469.333v0zM469.333 320h85.333v-85.333h-85.333v85.333zM469.333 661.333h85.333v-256h-85.333v256z" />
<glyph unicode="&#xe90a;" glyph-name="icon-information" data-tags="icon-information" d="M981.333 448c0 260.267-209.067 469.333-469.333 469.333s-469.333-209.067-469.333-469.333 209.067-469.333 469.333-469.333 469.333 209.067 469.333 469.333zM554.667 576h-85.333v85.333h85.333v-85.333zM554.667 234.667h-85.333v256h85.333v-256z" />
<glyph unicode="&#xe90b;" glyph-name="icon-info" data-tags="icon-info" d="M981.333 448c0 260.267-209.067 469.333-469.333 469.333s-469.333-209.067-469.333-469.333 209.067-469.333 469.333-469.333 469.333 209.067 469.333 469.333zM896 448c0-211.2-172.8-384-384-384s-384 172.8-384 384 172.8 384 384 384 384-172.8 384-384zM469.333 661.333h85.333v-85.333h-85.333v85.333zM469.333 490.667h85.333v-256h-85.333v256z" />
<glyph unicode="&#xe90c;" glyph-name="icon-question" data-tags="icon-question" d="M512 917.333c-260.267 0-469.333-209.067-469.333-469.333s209.067-469.333 469.333-469.333 469.333 209.067 469.333 469.333-209.067 469.333-469.333 469.333zM554.667 234.667h-85.333v85.333h85.333v-85.333zM642.133 490.667c-12.8-19.2-34.133-38.4-61.867-59.733-10.667-8.533-19.2-17.067-23.467-27.733s-6.4-23.467-6.4-38.4h-78.933c0 27.733 4.267 51.2 12.8 70.4 10.667 19.2 27.733 36.267 51.2 55.467 12.8 8.533 19.2 17.067 25.6 25.6 4.267 8.533 6.4 21.333 6.4 34.133 0 17.067-4.267 32-14.933 40.533-10.667 10.667-25.6 14.933-42.667 14.933-21.333 0-38.4-6.4-49.067-17.067-10.667-12.8-17.067-29.867-17.067-55.467h-81.067c2.133 44.8 14.933 81.067 42.667 106.667 25.6 25.6 61.867 38.4 108.8 38.4 44.8 0 81.067-10.667 108.8-34.133s40.533-53.333 40.533-93.867c-2.133-23.467-8.533-42.667-21.333-59.733z" />
<glyph unicode="&#xe90d;" glyph-name="icon-help" data-tags="icon-help" d="M512 917.333c-260.267 0-469.333-209.067-469.333-469.333s209.067-469.333 469.333-469.333 469.333 209.067 469.333 469.333-209.067 469.333-469.333 469.333zM512 64c-211.2 0-384 172.8-384 384s172.8 384 384 384 384-172.8 384-384-172.8-384-384-384zM620.8 642.133c-27.733 23.467-64 34.133-108.8 34.133s-81.067-12.8-108.8-38.4c-25.6-25.6-40.533-61.867-42.667-106.667h83.2c0 25.6 6.4 42.667 17.067 55.467s27.733 17.067 49.067 17.067c17.067 0 32-4.267 42.667-14.933s14.933-23.467 14.933-40.533c0-14.933-2.133-25.6-6.4-34.133s-12.8-17.067-25.6-25.6c-25.6-17.067-42.667-36.267-51.2-55.467-10.667-19.2-14.933-42.667-12.8-70.4h78.933c0 17.067 2.133 29.867 6.4 38.4 4.267 10.667 12.8 19.2 23.467 27.733 29.867 21.333 49.067 42.667 61.867 59.733 12.8 19.2 19.2 38.4 19.2 59.733 0 38.4-12.8 70.4-40.533 93.867zM469.333 320h85.333v-85.333h-85.333v85.333z" />
<glyph unicode="&#xe90e;" glyph-name="icon-question2" data-tags="icon-question2" horiz-adv-x="614" d="M319.488 947.712c90.112 0 159.744-24.576 212.992-73.728 49.152-45.056 77.824-110.592 77.824-192.512 0-61.44-16.384-114.688-53.248-159.744-12.288-16.384-49.152-53.248-110.592-106.496-28.672-24.576-49.152-49.152-65.536-77.824s-24.576-61.44-24.576-102.4v-32.768h-114.688v32.768c0 45.056 8.192 86.016 24.576 118.784 20.48 40.96 65.536 94.208 139.264 159.744 20.48 20.48 36.864 36.864 45.056 49.152 28.672 32.768 40.96 69.632 40.96 110.592 0 53.248-16.384 98.304-45.056 126.976-28.672 36.864-73.728 53.248-131.072 53.248-69.632 0-122.88-20.48-155.648-69.632-28.672-36.864-45.056-90.112-45.056-155.648h-106.496c0 98.304 24.576 172.032 81.92 233.472 53.248 57.344 131.072 86.016 229.376 86.016zM299.008 112.128c24.576 0 45.056-8.192 61.44-24.576s24.576-32.768 24.576-57.344c0-24.576-8.192-45.056-24.576-57.344-16.384-16.384-36.864-24.576-57.344-24.576-24.576 0-40.96 8.192-57.344 24.576s-24.576 36.864-24.576 57.344c0 24.576 8.192 40.96 24.576 57.344 8.192 16.384 28.672 24.576 53.248 24.576z" />
<glyph unicode="&#xe90f;" glyph-name="icon-toconfirmed" data-tags="icon-toconfirmed" horiz-adv-x="979" d="M966.122 430.191c0-262.678-213.704-476.383-476.383-476.383s-476.383 213.704-476.383 476.383c0 164.73 89.043 320.557 227.061 405.148l-84.591 31.165 26.713 71.235 218.157-80.139-84.591-213.704-75.687 31.165 40.070 97.948c-115.757-71.235-186.991-200.348-186.991-338.365 0-222.609 178.087-400.696 396.243-400.696s396.243 178.087 396.243 396.243c0 164.73-106.852 316.104-258.226 373.983l26.713 75.687c186.991-71.235 311.652-249.322 311.652-449.67zM365.078 612.73c-17.809-17.809-26.713-35.617-35.617-57.878s-13.357-48.974-13.357-71.235h66.783c0 17.809 4.452 35.617 4.452 48.974 4.452 13.357 13.357 26.713 22.261 40.070s22.261 22.261 35.617 26.713c8.904 4.452 26.713 8.904 44.522 8.904 26.713 0 48.974-8.904 66.783-22.261 17.809-17.809 26.713-40.070 26.713-66.783 0-17.809 0-35.617-8.904-48.974-4.452-13.357-13.357-26.713-22.261-35.617-8.904-13.357-22.261-22.261-31.165-31.165-13.357-8.904-22.261-22.261-31.165-31.165-8.904-13.357-17.809-26.713-26.713-40.070s-13.357-35.617-13.357-53.426v-35.617h66.783v31.165c0 13.357 4.452 26.713 4.452 35.617 4.452 8.904 8.904 22.261 17.809 31.165s13.357 17.809 22.261 26.713c8.904 8.904 17.809 17.809 26.713 22.261 8.904 8.904 17.809 17.809 26.713 26.713s13.357 17.809 22.261 26.713c4.452 8.904 13.357 22.261 13.357 35.617 4.452 13.357 4.452 26.713 4.452 44.522 0 26.713-4.452 44.522-13.357 66.783-8.904 17.809-17.809 35.617-35.617 48.974-13.357 13.357-31.165 22.261-53.426 31.165-17.809-4.452-40.070-4.452-62.33-4.452-26.713 0-48.974-4.452-71.235-13.357s-40.070-22.261-53.426-40.070zM449.67 127.443h71.235v71.235h-71.235v-71.235z" />
<glyph unicode="&#xe910;" glyph-name="icon-calendar" data-tags="icon-calendar" d="M915.2 851.2h-134.4v66.133h-134.4v-66.133h-268.8v66.133h-134.4v-66.133h-134.4c-36.267 0-66.133-29.867-66.133-68.267v-738.133c0-36.267 29.867-66.133 66.133-66.133h804.267c36.267 0 66.133 29.867 66.133 66.133v738.133c2.133 38.4-27.733 68.267-64 68.267zM915.2 44.8h-806.4v603.733h804.267v-603.733zM243.2 514.133h134.4v-134.4h-134.4v134.4zM445.867 514.133h134.4v-134.4h-134.4v134.4zM646.4 514.133h134.4v-134.4h-134.4v134.4zM243.2 313.6h134.4v-134.4h-134.4v134.4zM445.867 313.6h134.4v-134.4h-134.4v134.4z" />
<glyph unicode="&#xe911;" glyph-name="icon-sex" data-tags="icon-sex" d="M885.76 524.8l-168.96 163.84v-220.16c87.040-10.24 153.6-87.040 153.6-174.080 0-97.28-81.92-179.2-179.2-179.2s-179.2 81.92-179.2 179.2c0 92.16 66.56 163.84 153.6 174.080v220.16l-168.96-163.84-35.84 35.84 204.8 204.8v15.36h51.2v-10.24l204.8-204.8-35.84-40.96zM691.2 422.4c-71.68 0-128-56.32-128-128s56.32-128 128-128 128 56.32 128 128-56.32 128-128 128zM307.2 422.4v-102.4h153.6v-51.2h-153.6v-153.6h-51.2v153.6h-153.6v51.2h153.6v102.4c-87.040 15.36-153.6 87.040-153.6 179.2 0 97.28 81.92 179.2 179.2 179.2s179.2-81.92 179.2-179.2c0-92.16-66.56-163.84-153.6-179.2zM281.6 729.6c-71.68 0-128-56.32-128-128s56.32-128 128-128 128 56.32 128 128-56.32 128-128 128z" />
<glyph unicode="&#xe912;" glyph-name="icon-deactivation" data-tags="icon-deactivation" d="M469.333 917.333h85.333v-426.667h-85.333v426.667zM640 900.267v-89.6c149.333-53.333 256-194.133 256-360.533 0-211.2-172.8-384-384-384s-384 170.667-384 381.867c0 166.4 106.667 309.333 256 360.533v91.733c-196.267-55.467-341.333-236.8-341.333-452.267 0-260.267 209.067-469.333 469.333-469.333s469.333 209.067 469.333 469.333c0 215.467-145.067 396.8-341.333 452.267z" />
<glyph unicode="&#xe913;" glyph-name="icon-delete-line" data-tags="icon-delete-line" d="M384 661.333h85.333v-512h-85.333v512zM554.667 661.333h85.333v-512h-85.333v512zM725.333 85.333h-426.667v576h-85.333v-661.333h597.333v661.333h-85.333zM682.667 810.667v85.333h-341.333v-85.333h-170.667v-85.333h682.667v85.333z" />
<glyph unicode="&#xe914;" glyph-name="icon-drop-down" data-tags="icon-drop-down" d="M42.667 682.667l469.333-469.333 469.333 469.333z" />
<glyph unicode="&#xe915;" glyph-name="icon-time-back1" data-tags="icon-time-back1" d="M241.067 448l539.733-405.333v810.667l-539.733-405.333z" />
<glyph unicode="&#xe916;" glyph-name="icon-time-go1" data-tags="icon-time-go1" d="M241.067 853.333v-810.667l539.733 405.333-539.733 405.333z" />
<glyph unicode="&#xe917;" glyph-name="icon-drop-down-2" data-tags="icon-drop-down-2" d="M964.267 646.4l-59.733 59.733-390.4-394.667-394.667 388.267-59.733-59.733 456.533-450.133 59.733 61.867z" />
<glyph unicode="&#xe918;" glyph-name="icon-drop-left" data-tags="icon-drop-left" d="M315.733 512v0l-61.867-59.733 450.133-456.533 59.733 59.733-388.267 394.667 394.667 390.4-59.733 59.733z" />
<glyph unicode="&#xe919;" glyph-name="icon-drop-right" data-tags="icon-drop-right" d="M313.6 900.267l-59.733-59.733 394.667-390.4-388.267-394.667 59.733-59.733 450.133 456.533-61.867 59.733z" />
<glyph unicode="&#xe91a;" glyph-name="icon-edit" data-tags="icon-edit" d="M832 106.667h-640v661.333h320v85.333h-405.333v-832h810.667v426.667h-85.333zM404.702 400.785l452.544 452.544 60.339-60.339-452.544-452.544-60.339 60.339z" />
<glyph unicode="&#xe91b;" glyph-name="icon-modify" data-tags="icon-modify" d="M106.667 189.867v-147.2h149.333l520.533 520.533-147.2 147.2-522.667-520.533zM904.533 691.2c19.2 17.067 12.8 51.2-4.267 68.267l-78.933 78.933c-19.2 19.2-44.8 19.2-64 2.133l-81.067-81.067 147.2-147.2 81.067 78.933z" />
<glyph unicode="&#xe91c;" glyph-name="icon-filter" data-tags="icon-filter" d="M917.333 853.333h-810.667l362.667-362.667v-405.333l85.333-42.667v448z" />
<glyph unicode="&#xe91d;" glyph-name="icon-list" data-tags="icon-list" d="M85.333 789.333h85.333v-85.333h-85.333v85.333zM256 789.333h682.667v-85.333h-682.667v85.333zM85.333 490.667h85.333v-85.333h-85.333v85.333zM256 490.667h682.667v-85.333h-682.667v85.333zM85.333 192h85.333v-85.333h-85.333v85.333zM256 192h682.667v-85.333h-682.667v85.333z" />
<glyph unicode="&#xe91e;" glyph-name="icon-date-report-statistics" data-tags="icon-date-report-statistics" d="M153.6 89.6v716.8h716.8v-716.8h-716.8zM819.2 755.2h-614.4v-102.4h614.4v102.4zM819.2 601.6h-614.4v-460.8h614.4v460.8zM368.64 514.56h35.84v-322.56h-51.2v266.24c-20.48-20.48-40.96-35.84-71.68-40.96v51.2c15.36 5.12 30.72 10.24 46.080 20.48 15.36 5.12 30.72 15.36 40.96 25.6zM634.88 514.56h35.84v-322.56h-51.2v266.24c-15.36-20.48-40.96-35.84-66.56-40.96v51.2c15.36 5.12 30.72 10.24 46.080 20.48 15.36 5.12 25.6 15.36 35.84 25.6z" />
<glyph unicode="&#xe91f;" glyph-name="icon-pending" data-tags="icon-pending" d="M512 917.333c-260.267 0-469.333-209.067-469.333-469.333s209.067-469.333 469.333-469.333 469.333 209.067 469.333 469.333-209.067 469.333-469.333 469.333zM746.667 362.667h-298.667v341.333h85.333v-256h213.333v-85.333z" />
<glyph unicode="&#xe920;" glyph-name="icon-refresh" data-tags="icon-refresh" d="M85.333 576l234.667 64-93.867 64c70.4 78.933 172.8 128 285.867 128 211.2 0 384-172.8 384-384s-172.8-384-384-384-384 172.8-384 384h-85.333c0-260.267 209.067-469.333 469.333-469.333s469.333 209.067 469.333 469.333-209.067 469.333-469.333 469.333c-142.933 0-270.933-64-356.267-164.267l-113.067 78.933 42.667-256z" />
<glyph unicode="&#xe921;" glyph-name="icon-restart" data-tags="icon-restart" d="M320 640l-110.933 42.667c61.867 81.067 155.733 136.533 264.533 147.2 211.2 21.333 398.933-132.267 422.4-343.467 0-10.667 0-25.6 0-38.4h85.333c0 17.067 0 32-2.133 49.067-27.733 258.133-258.133 445.867-516.267 418.133-140.8-14.933-260.267-89.6-337.067-198.4l-83.2 29.867 42.667-213.333 234.667 106.667zM938.667 362.667l-234.667-106.667 110.933-42.667c-61.867-81.067-155.733-136.533-264.533-147.2-209.067-23.467-398.933 130.133-420.267 341.333-2.133 12.8-2.133 27.733-2.133 40.533h-85.333c0-17.067 0-32 2.133-49.067 27.733-258.133 258.133-445.867 514.133-418.133 140.8 14.933 262.4 91.733 337.067 200.533l85.333-32-42.667 213.333z" />
<glyph unicode="&#xe922;" glyph-name="icon-search" data-tags="icon-search" d="M469.333 853.333c-0.175 0-0.384 0-0.592 0-200.295 0-362.667-162.371-362.667-362.667s162.371-362.667 362.667-362.667c85.251 0 163.632 29.415 225.547 78.649l-0.742-0.57 163.413-163.413 60.373 60.373-163.413 163.413c48.381 61.069 77.613 139.227 77.613 224.214 0 200.131-162.106 362.401-362.175 362.666h-0.025zM469.333 213.333c-153.167 0-277.333 124.166-277.333 277.333s124.166 277.333 277.333 277.333c153.167 0 277.333-124.166 277.333-277.333v0c0-153.167-124.166-277.333-277.333-277.333v0z" />
<glyph unicode="&#xe923;" glyph-name="icon-left-personnal-retrieval" data-tags="icon-left-personnal-retrieval" d="M981.333 44.8h-74.667c0 187.733-149.333 337.067-337.067 337.067-4.267 0-8.533 0-10.667 0-8.533 29.867-19.2 55.467-34.133 83.2 14.933-4.267 29.867-8.533 44.8-8.533 104.533 0 187.733 83.2 187.733 187.733s-83.2 187.733-189.867 187.733-187.733-83.2-187.733-187.733c0-25.6 4.267-44.8 10.667-68.267-25.6 10.667-53.333 23.467-83.2 25.6-4.267 10.667-4.267 25.6-4.267 40.533 0 147.2 117.333 262.4 262.4 262.4s266.667-113.067 266.667-260.267c0-89.6-44.8-168.533-113.067-217.6 153.6-59.733 262.4-209.067 262.4-381.867zM492.8 307.2c0-44.8-14.933-89.6-38.4-128l138.667-138.667-53.333-53.333-136.533 140.8c-38.4-25.6-83.2-44.8-134.4-44.8-123.733-2.133-226.133 100.267-226.133 224s102.4 226.133 226.133 226.133c123.733 0 224-102.4 224-226.133zM268.8 456.533c-83.2 0-149.333-68.267-149.333-149.333s68.267-149.333 149.333-149.333 149.333 68.267 149.333 149.333-68.267 149.333-149.333 149.333z" />
<glyph unicode="&#xe924;" glyph-name="icon-monitor" data-tags="icon-monitor" d="M725.577 413.989c-50.191-38.463-113.764-61.773-182.765-62.171h-0.092c1.35-9.844 2.145-21.262 2.194-32.856v-0.058c-0.384-37.966-8.28-73.986-22.269-106.785l0.692 1.825 133.851-133.851h292.571c1.097 81.554-87.771 272.091-224.183 333.897zM533.943 388.754h19.749c132.605 0.126 240.054 107.652 240.054 240.274 0 132.7-107.574 240.274-240.274 240.274s-240.274-107.574-240.274-240.274c0-17.221 1.812-34.018 5.255-50.212l-0.28 1.572c104.311-16.184 187.556-91.345 215.322-189.769l0.45-1.865zM484.937 319.269c0 113.714-92.183 205.897-205.897 205.897s-205.897-92.183-205.897-205.897c0-113.714 92.183-205.897 205.897-205.897v0c46.525 0.888 89.227 16.543 123.799 42.454l-0.554-0.397 126.903-126.903 47.909 47.909-126.903 126.903c20.779 32.977 33.557 72.846 34.736 115.613l0.007 0.318zM279.040 181.76c-0.109 0-0.237 0-0.366 0-75.944 0-137.509 61.565-137.509 137.509s61.565 137.509 137.509 137.509c75.944 0 137.508-61.564 137.509-137.508v0c-0.206-75.733-61.44-137.094-137.103-137.508h-0.039z" />
<glyph unicode="&#xe925;" glyph-name="icon-Preview" data-tags="icon-Preview" d="M192 768h640v-341.333h85.333v426.667h-810.667v-832h405.333v85.333h-320zM917.333 81.067l-174.933 174.933c29.867 42.667 46.933 91.733 46.933 147.2 0 140.8-115.2 256-256 256s-256-115.2-256-256c0-140.8 115.2-256 256-256 55.467 0 106.667 17.067 149.333 46.933l174.933-174.933 59.733 61.867zM362.667 405.333c0 93.867 76.8 170.667 170.667 170.667s170.667-76.8 170.667-170.667c0-93.867-76.8-170.667-170.667-170.667s-170.667 76.8-170.667 170.667z" />
<glyph unicode="&#xe926;" glyph-name="icon-expand" data-tags="icon-expand" d="M469.333 853.333c-200.533 0-362.667-162.133-362.667-362.667s162.133-362.667 362.667-362.667c85.333 0 162.133 29.867 224 78.933l164.267-164.267 59.733 59.733-164.267 164.267c49.067 61.867 78.933 138.667 78.933 224 0 200.533-162.133 362.667-362.667 362.667v0zM469.333 213.333c-153.6 0-277.333 123.733-277.333 277.333s123.733 277.333 277.333 277.333c153.6 0 277.333-123.733 277.333-277.333s-123.733-277.333-277.333-277.333v0zM512 661.333h-85.333v-128h-128v-85.333h128v-128h85.333v128h128v85.333h-128v128z" />
<glyph unicode="&#xe927;" glyph-name="icon-search-circle" data-tags="icon-search-circle" horiz-adv-x="979" d="M489.739-46.191c-262.678 0-476.383 213.704-476.383 476.383 0 164.73 89.043 320.557 227.061 405.148l-84.591 31.165 26.713 71.235 218.157-80.139-84.591-213.704-75.687 31.165 40.070 97.948c-115.757-71.235-186.991-200.348-186.991-338.365 0-222.609 178.087-400.696 396.243-400.696s396.243 178.087 396.243 396.243c0 164.73-106.852 316.104-258.226 373.983l26.713 75.687c186.991-66.783 311.652-249.322 311.652-449.67 0-262.678-213.704-476.383-476.383-476.383zM681.183 194.226l-75.687 75.687c-35.617-26.713-75.687-40.070-124.661-40.070-115.757 0-204.8 93.496-204.8 209.252s93.496 209.252 209.252 209.252c115.757 0 204.8-93.496 204.8-209.252 0-44.522-13.357-84.591-35.617-115.757l75.687-75.687-48.974-53.426zM485.287 577.113c-75.687 0-138.017-62.33-138.017-138.017s62.33-138.017 138.017-138.017 138.017 62.33 138.017 138.017c-4.452 75.687-62.33 138.017-138.017 138.017z" />
<glyph unicode="&#xe928;" glyph-name="icon-focus" data-tags="icon-focus" d="M877.714 594.286v219.429h-219.429v146.286h365.714v-365.714h-146.286zM146.286 594.286h-146.286v365.714h365.714v-146.286h-219.429v-219.429zM146.286 301.714v-219.429h219.429v-146.286h-365.714v365.714h146.286zM877.714 301.714h146.286v-365.714h-365.714v146.286h219.429v219.429z" />
<glyph unicode="&#xe929;" glyph-name="icon-add-circle" data-tags="icon-add-circle" d="M512-64c-283.106 0-512 228.894-512 512s228.894 512 512 512 512-228.894 512-512-228.894-512-512-512v0zM512 899.765c-246.965 0-451.765-204.8-451.765-451.765s204.8-451.765 451.765-451.765 451.765 204.8 451.765 451.765-204.8 451.765-451.765 451.765zM542.118 176.941h-60.235v240.941h-240.941v60.235h240.941v240.941h60.235v-240.941h240.941v-60.235h-240.941v-240.941z" />
<glyph unicode="&#xe92a;" glyph-name="icon-trajectory" data-tags="icon-trajectory" horiz-adv-x="1103" d="M905.846 408.615c0 0-196.923 236.308-196.923 346.585s86.646 196.923 196.923 196.923 196.923-86.646 196.923-196.923c0-110.277-196.923-346.585-196.923-346.585zM905.846 881.231c-63.015 0-118.154-55.138-118.154-118.154s55.138-118.154 118.154-118.154 118.154 55.138 118.154 118.154c0 0 0 0 0 0 0 63.015-55.138 118.154-118.154 118.154 0 0 0 0 0 0v0zM787.692 408.615h-196.923c-47.262 0-78.769-31.508-78.769-78.769s31.508-78.769 78.769-78.769h315.077c86.646 0 157.538-70.892 157.538-157.538s-70.892-157.538-157.538-157.538h-708.923v78.769h708.923c47.262 0 78.769 31.508 78.769 78.769s-31.508 78.769-78.769 78.769h-315.077c-86.646 0-157.538 70.892-157.538 157.538s70.892 157.538 157.538 157.538h196.923v-78.769zM196.923 566.154c110.277 0 196.923-94.523 196.923-204.8 0 0 0 0 0 0 0-118.154-196.923-346.585-196.923-346.585s-196.923 236.308-196.923 346.585c0 110.277 86.646 204.8 196.923 204.8 0 0 0 0 0 0v0zM196.923 251.077c63.015 0 118.154 55.138 110.277 126.031 0 63.015-55.138 110.277-118.154 110.277s-118.154-55.138-118.154-118.154c0-63.015 55.138-118.154 126.031-118.154-7.877 0-7.877 0 0 0v0z" />
<glyph unicode="&#xe92b;" glyph-name="icon-home-2" data-tags="icon-home-2" d="M512 667.429l329.143-306.469v-333.531h-219.429v219.429h-219.429v-219.429h-219.429v335.36zM950.857 459.337l-438.857 409.234-438.857-407.040 49.737-53.76 389.12 360.96 389.12-361.326z" />
<glyph unicode="&#xe92c;" glyph-name="icon-viewdata" data-tags="icon-viewdata" d="M554.667 213.333h-85.333v-85.333h-170.667v-85.333h426.667v85.333h-170.667zM85.333 853.333v-597.333h853.333v597.333h-853.333zM768 518.4l-200.533-100.267-170.667 170.667-140.8-70.4v96l157.867 78.933 170.667-170.667 183.467 91.733v-96z" />
<glyph unicode="&#xe92d;" glyph-name="icon-building" data-tags="icon-building" d="M859.429 45.714h-731.429v365.714h182.857v329.143h36.571v109.714h182.857v-109.714h36.571v-256h36.571v36.571h36.571v36.571h36.571v-36.571h36.571v182.857h36.571v36.571h109.714v-36.571h36.571v-658.286zM420.571 484.571h36.571v73.143h-36.571zM420.571 594.286h36.571v36.571h-36.571zM347.429 82.286h36.571v73.143h-36.571zM347.429 192h36.571v36.571h-36.571zM347.429 265.143h36.571v36.571h-36.571zM310.857 82.286v73.143h-73.143v-73.143zM237.714 265.143h73.143v36.571h-73.143zM237.714 228.571v-36.571h73.143v36.571zM164.571 82.286h36.571v73.143h-36.571zM164.571 192h36.571v36.571h-36.571zM164.571 265.143h36.571v36.571h-36.571zM310.857 374.857h-146.286v-36.571h219.429v36.571h-73.143zM347.429 557.714v-73.143h36.571v73.143zM384 594.286v36.571h-36.571v-36.571zM347.429 448v-36.571h36.571v36.571zM347.429 704v-36.571h36.571v36.571zM420.571 813.714h-36.571v-36.571h36.571zM420.571 704v-36.571h36.571v36.571zM493.714 813.714h-36.571v-36.571h36.571zM530.286 704h-36.571v-36.571h36.571zM530.286 630.857h-36.571v-36.571h36.571zM530.286 557.714h-36.571v-73.143h36.571zM713.143 448h-292.571v-365.714h73.143v329.143h36.571v-329.143h73.143v329.143h36.571v-329.143h73.143zM786.286 667.429h-36.571v-36.571h36.571zM786.286 594.286h-36.571v-36.571h36.571zM786.286 521.143h-36.571v-36.571h36.571zM786.286 448h-36.571v-36.571h36.571zM786.286 374.857h-36.571v-36.571h36.571zM786.286 301.714h-36.571v-36.571h36.571zM786.286 228.571h-36.571v-36.571h36.571zM786.286 155.429h-36.571v-73.143h36.571zM859.429 667.429h-36.571v-36.571h36.571zM859.429 594.286h-36.571v-36.571h36.571zM859.429 521.143h-36.571v-36.571h36.571zM859.429 448h-36.571v-36.571h36.571zM859.429 374.857h-36.571v-36.571h36.571zM859.429 301.714h-36.571v-36.571h36.571zM859.429 228.571h-36.571v-36.571h36.571zM859.429 155.429h-36.571v-73.143h36.571z" />
<glyph unicode="&#xe92e;" glyph-name="icon-carsearch" data-tags="icon-carsearch" d="M494.446 381.44c0.005 0.546 0.008 1.191 0.008 1.836 0 115.901-93.441 209.979-209.099 211.009l-0.098 0.001c-116.744 0-211.383-94.639-211.383-211.383s94.639-211.383 211.383-211.383v0c47.325 0.641 90.831 16.472 125.999 42.823l-0.559-0.401 129.097-131.657 48.64 49.371-129.097 130.194c21.172 34.076 34.104 75.223 35.104 119.315l0.005 0.273zM285.257 240.64c-0.435-0.005-0.949-0.008-1.463-0.008-77.762 0-140.8 63.038-140.8 140.8s63.038 140.8 140.8 140.8c77.759 0 140.796-63.034 140.8-140.792v0c0-0.11 0-0.24 0-0.37 0-77.174-62.251-139.809-139.278-140.43h-0.059zM105.326 582.217l38.4 73.143h-87.406c-0.025 0-0.055 0-0.085 0-10.907 0-19.749-8.842-19.749-19.749 0-0.644 0.031-1.281 0.091-1.909l-0.006 0.080v-20.48c0-29.989 32.914-38.4 59.611-39.497zM967.68 655.36h-87.406l43.154-80.091c27.429 0 64 7.68 64 39.497v19.017c0 10.907-8.842 19.749-19.749 19.749v0zM794.331 723.749c-32.549 53.394-49.737 68.023-89.966 75.337-51.966 9.426-111.775 14.816-172.843 14.816-6.864 0-13.712-0.068-20.544-0.204l1.022 0.016c-5.81 0.12-12.658 0.188-19.522 0.188-61.068 0-120.878-5.39-178.978-15.72l6.135 0.904c-40.229-7.314-57.417-20.114-90.331-75.703-18.651-31.086-36.571-63.269-53.76-94.72 28.608 13.324 61.945 21.781 97.069 23.385l0.577 0.021c10.088 19.215 19.552 34.999 29.765 50.239l-1.24-1.964c7.831 11.677 19.947 19.961 34.050 22.623l0.327 0.051c49.578 9.347 106.611 14.694 164.893 14.694 3.873 0 7.741-0.024 11.603-0.071l-0.587 0.006c3.843 0.057 8.381 0.090 12.926 0.090 57.6 0 113.98-5.222 168.693-15.218l-5.71 0.866c14.415-2.755 26.517-11.026 34.258-22.487l0.12-0.188c23.013-35.822 44.707-77.188 62.753-120.456l1.978-5.35c-76.474-12.65-164.6-19.878-254.415-19.878-7.243 0-14.476 0.047-21.697 0.141l1.095-0.011h-20.114c38.692-46.607 62.172-107.051 62.172-172.98 0-0.13 0-0.259 0-0.389v0.020c0-2.56 0-5.486 0-8.046h96.914c9.884-1.38 17.408-9.777 17.408-19.931s-7.525-18.551-17.302-19.919l-0.106-0.012h-102.4c-4.146-22.615-10.101-42.611-17.927-61.639l0.738 2.028 98.743-99.84h137.874v-40.96c0-0.001 0-0.001 0-0.002 0-21.887 17.639-39.654 39.478-39.861h59.631c21.858 0.207 39.497 17.974 39.497 39.861 0 0.001 0 0.001 0 0.002v0 73.143c23.046 46.538 37.502 101.039 39.837 158.663l0.025 0.789c0.029 1.527 0.045 3.327 0.045 5.131 0 51.827-13.578 100.482-37.37 142.604l0.753-1.449c-32.183 62.537-72.777 139.337-115.566 211.383zM808.96 333.531c-0.109-0.001-0.237-0.001-0.366-0.001-33.124 0-59.977 26.853-59.977 59.977s26.853 59.977 59.977 59.977c33.124 0 59.976-26.852 59.977-59.976v0c0.001-0.109 0.001-0.238 0.001-0.367 0-32.794-26.482-59.404-59.227-59.61h-0.020zM114.103 133.486c-0.001-0.117-0.002-0.255-0.002-0.393 0-22.016 17.847-39.863 39.863-39.863 0.515 0 1.028 0.010 1.538 0.029l-0.074-0.002h59.246c14.468 0.073 27.087 7.914 33.911 19.562l0.101 0.186c-51.211 7.139-96.596 27.917-133.565 58.506l0.445-0.358z" />
<glyph unicode="&#xe92f;" glyph-name="icon-population" data-tags="icon-population" d="M815.177 402.286c-0.806 34.673-8.947 67.253-22.923 96.513l0.614-1.428c-5.019 5.743-11.428 10.149-18.707 12.705l-0.31 0.095h-2.926c-6.218 2.985-13.964 6.082-21.92 8.717l-1.486 0.426-6.217 1.829c-8.046 4.023-14.994 8.411-16.457 12.8 0.369 0.689 0.585 1.508 0.585 2.377s-0.217 1.688-0.599 2.405l0.013-0.028c9.706 10.861 16.663 24.377 19.659 39.325l0.090 0.537c2.542 2.854 4.259 6.494 4.745 10.513l0.009 0.093c0 5.851 3.657 16.091 0 20.846v0c2.078 5.867 3.279 12.634 3.279 19.681 0 14.318-4.956 27.478-13.247 37.858l0.094-0.122c-7.292 8.227-16.886 14.262-27.771 17.102l-0.389 0.086-8.777 2.926c-6.738 2.287-14.762 4.203-23.020 5.397l-0.751 0.089h-1.829c-0.55-0.122-1.181-0.193-1.829-0.193s-1.279 0.070-1.887 0.203l0.058-0.011c-1.429 0.296-3.072 0.466-4.754 0.466s-3.325-0.17-4.912-0.492l0.158 0.027c-16.586-7.047-29.524-19.986-36.403-36.127l-0.168-0.444c-1.515-5.986-2.385-12.857-2.385-19.931s0.87-13.946 2.508-20.513l-0.123 0.582h-1.829c-3.657-4.754 0-14.994 0-20.846 0.444-4.122 2.171-7.775 4.767-10.62l-0.013 0.015c2.621-15.423 9.237-28.977 18.739-39.966l-0.088 0.104c-1.166-1.068-2.051-2.425-2.542-3.958l-0.018-0.065c0-4.754-9.143-9.509-18.286-13.897-2.456 7.941-5.687 14.85-9.719 21.2l0.21-0.355c-5.009 5.756-11.421 10.165-18.709 12.707l-0.308 0.093h-2.926c-6.184 2.958-13.93 6.055-21.88 8.703l-1.526 0.44-6.583 2.56c-8.046 4.023-14.994 8.411-16.091 12.8 0.369 0.689 0.585 1.508 0.585 2.377s-0.217 1.688-0.599 2.405l0.013-0.028c9.721 10.853 16.682 24.373 19.66 39.329l0.089 0.534c2.562 2.843 4.284 6.489 4.746 10.518l0.008 0.088c0 5.851 3.657 16.091 0 20.846v0c2.134 5.941 3.368 12.796 3.368 19.938 0 13.081-4.137 25.195-11.174 35.107l0.127-0.188c-7.292 8.227-16.886 14.262-27.771 17.102l-0.389 0.086-8.777 2.926c-6.761 2.315-14.787 4.232-23.053 5.402l-0.718 0.083h-5.486c-1.429 0.292-3.072 0.459-4.754 0.459s-3.325-0.167-4.913-0.485l0.159 0.027c-16.586-7.047-29.524-19.986-36.403-36.127l-0.168-0.444c-1.522-5.985-2.396-12.856-2.396-19.931s0.874-13.946 2.519-20.511l-0.123 0.58c-3.657-4.754 0-14.994 0-20.846 0.496-4.112 2.212-7.752 4.771-10.625l-0.017 0.019c-0.003-0.253-0.005-0.552-0.005-0.851 0-17.991 5.905-34.603 15.882-48.003l-0.152 0.214c-1.141-1.086-2.019-2.436-2.539-3.953l-0.021-0.069c-3.657-11.703-49.006-25.6-49.006-25.6-7.589-2.651-13.998-7.057-18.973-12.748l-0.044-0.052c-3.591-5.676-6.689-12.211-8.964-19.12l-0.179-0.628c-8.046 4.023-14.629 8.411-16.091 12.8 0.369 0.689 0.585 1.508 0.585 2.377s-0.217 1.688-0.599 2.405l0.013-0.028c9.721 10.853 16.682 24.373 19.66 39.329l0.089 0.534c1.757 2.812 2.834 6.208 2.925 9.849v0.025c0 5.851 3.657 16.091 0 20.846v0c1.931 5.668 3.045 12.197 3.045 18.986 0 13.975-4.722 26.847-12.658 37.108l0.104-0.14c-7.078 7.889-16.259 13.756-26.663 16.725l-0.4 0.098-8.777 2.926c-6.755 2.308-14.781 4.225-23.045 5.401l-0.727 0.085h-4.023c-0.55-0.122-1.181-0.193-1.829-0.193s-1.279 0.070-1.887 0.203l0.058-0.011c-1.429 0.292-3.072 0.459-4.754 0.459s-3.325-0.167-4.913-0.485l0.159 0.027c-16.564-7.081-29.491-20.008-36.402-36.126l-0.17-0.445c-1.536-5.985-2.417-12.855-2.417-19.931s0.881-13.947 2.541-20.507l-0.123 0.576c-3.657-4.754 0-14.994 0-20.846 0.471-4.117 2.192-7.763 4.769-10.623l-0.015 0.017c2.621-15.423 9.237-28.977 18.739-39.966l-0.088 0.104c-1.129-1.094-2.005-2.441-2.538-3.951l-0.022-0.072c-3.657-11.703-49.006-25.6-49.006-25.6-7.583-2.668-13.988-7.070-18.974-12.75l-0.043-0.050c-13.341-27.835-21.479-60.412-22.303-94.8l-0.005-0.286c0-11.337 14.994-192.731 156.16-244.297 1.583 37.204 11.135 71.831 26.981 102.696l-0.65-1.393c6.263 7.217 14.276 12.756 23.385 15.972l0.387 0.119s56.686 17.189 61.44 31.817v0 0c0.66 2.035 1.797 3.762 3.282 5.111l0.010 0.009c-11.873 13.658-20.188 30.708-23.324 49.511l-0.082 0.592c-3.267 3.516-5.503 8.031-6.203 13.039l-0.015 0.127c-2.194 7.314-4.389 20.114 0 25.966l2.194 2.194c-1.92 7.522-3.023 16.158-3.023 25.051s1.102 17.529 3.177 25.778l-0.155-0.727c8.844 21.343 25.468 37.967 46.247 46.604l0.564 0.208c3.317 1.396 7.173 2.206 11.219 2.206 0.299 0 0.597-0.004 0.894-0.013l-0.044 0.001c0.66-0.128 1.418-0.201 2.194-0.201s1.535 0.073 2.27 0.213l-0.075-0.012h2.56c11.181-1.571 21.179-3.999 30.775-7.292l-1.152 0.344 10.971-3.657c14.638-3.387 27.144-11.018 36.512-21.509l0.060-0.068c8.639-12.135 13.812-27.261 13.812-43.594 0-9.018-1.577-17.667-4.47-25.688l0.166 0.528c4.389-5.851 1.829-18.651 0-25.966-0.739-5.129-2.97-9.638-6.233-13.183l0.016 0.017c-3.771-19.318-12.413-36.192-24.593-49.84l0.090 0.102c1.385-1.213 2.255-2.985 2.255-4.96 0-0.314-0.022-0.624-0.065-0.926l0.004 0.035c0-5.486 10.24-10.971 20.48-16.091l8.046-3.291c11.821-3.805 21.505-7.647 30.892-12.021l-1.634 0.684h3.657c9.509-3.302 17.529-8.847 23.712-16.021l0.060-0.071c14.207-26.624 23.427-57.909 25.565-91.121l0.035-0.673c128.731 39.131 126.903 228.571 126.903 228.571z" />
<glyph unicode="&#xe930;" glyph-name="icon-personnel" data-tags="icon-personnel" d="M285.989 813.714h573.44v73.143h-590.629c-57.921-1.614-104.26-48.953-104.26-107.115 0-0.914 0.011-1.825 0.034-2.734l-0.003 0.135v-658.286c-0.020-0.774-0.032-1.685-0.032-2.599 0-58.162 46.339-105.501 104.111-107.112l0.149-0.003h590.629v731.429h-573.44c-20.198 0-36.571 16.374-36.571 36.571s16.374 36.571 36.571 36.571v0zM529.189 630.857c67.661-1.818 121.818-57.1 121.818-125.032 0-1.044-0.013-2.084-0.038-3.122l0.003 0.154c0.023-0.887 0.035-1.931 0.035-2.978 0-67.803-53.952-123.005-121.267-125.017l-0.185-0.004c-67.501 2.017-121.453 57.219-121.453 125.022 0 1.047 0.013 2.091 0.038 3.132l-0.003-0.154c-0.023 0.887-0.035 1.931-0.035 2.978 0 67.803 53.952 123.005 121.267 125.017l0.185 0.004zM435.2 371.566c25.373-20.723 58.123-33.28 93.806-33.28s68.433 12.556 94.074 33.492l-0.268-0.212c62.525-38.67 105.858-103.252 115.082-178.384l0.118-1.182h-416.914c8.378 76.46 51.697 141.305 113.417 178.969l1.052 0.597z" />
<glyph unicode="&#xe931;" glyph-name="icon-idcard" data-tags="icon-idcard" horiz-adv-x="1434" d="M0 960v-1024h1433.6v1024h-1433.6zM1344.853 17.92h-1256.107v853.333h1256.107v-853.333zM1256.107 700.587h-539.307v-81.92h539.307v81.92zM1256.107 536.747h-539.307v-88.747h539.307v88.747zM983.040 359.253h-266.24v-81.92h266.24v81.92zM628.053 400.213c0 75.093-61.44 136.533-143.36 136.533h-34.133v6.827c54.613 13.653 88.747 68.267 88.747 116.053 0 68.267-61.44 129.707-136.533 129.707s-136.533-61.44-136.533-129.707c0-61.44 34.133-102.4 88.747-116.053v-6.827h-34.133c-81.92 0-143.36-61.44-143.36-136.533v-204.8h450.56v204.8z" />
<glyph unicode="&#xe932;" glyph-name="icon-idcard2" data-tags="icon-idcard2" horiz-adv-x="1365" d="M1280-64h-1194.667c-51.2 0-85.333 34.133-85.333 85.333v853.333c0 51.2 34.133 85.333 85.333 85.333h1194.667c51.2 0 85.333-34.133 85.333-85.333v-853.333c0-51.2-34.133-85.333-85.333-85.333zM759.467 21.333c-17.067 145.067-136.533 256-290.133 256s-273.067-110.933-290.133-256h580.267zM1280 874.667h-1194.667v-853.333h8.533c25.6 187.733 179.2 341.333 375.467 341.333s358.4-153.6 375.467-341.333h435.2v853.333zM1194.667 618.667h-341.333v85.333h341.333v-85.333zM1194.667 362.667h-341.333v85.333h341.333v-85.333zM1194.667 106.667h-341.333v85.333h341.333v-85.333zM256 576c0 119.467 93.867 213.333 213.333 213.333s213.333-93.867 213.333-213.333-93.867-213.333-213.333-213.333-213.333 93.867-213.333 213.333zM469.333 448c68.267 0 128 59.733 128 128s-59.733 128-128 128-128-59.733-128-128 59.733-128 128-128z" />
<glyph unicode="&#xe933;" glyph-name="icon-history" data-tags="icon-history" d="M512 857.6c-225.28 0-409.6-184.32-409.6-409.6s184.32-409.6 409.6-409.6 409.6 184.32 409.6 409.6-184.32 409.6-409.6 409.6zM512 115.2c-184.32 0-332.8 148.48-332.8 332.8s148.48 332.8 332.8 332.8 332.8-148.48 332.8-332.8-148.48-332.8-332.8-332.8zM532.48 673.28h-76.8v-302.080h261.12v76.8h-184.32z" />
<glyph unicode="&#xe934;" glyph-name="icon-girl" data-tags="icon-girl" horiz-adv-x="768" d="M384 960c-204.8 0-369.371-168.229-369.371-376.686 0-193.829 142.629-351.086 325.486-373.029v-62.171h-73.143c-25.6 0-43.886-21.943-43.886-43.886 0-25.6 18.286-43.886 43.886-43.886h73.143v-76.8c0-25.6 18.286-43.886 43.886-43.886s43.886 21.943 43.886 43.886v76.8h73.143c25.6 0 43.886 21.943 43.886 43.886 0 25.6-18.286 43.886-43.886 43.886h-73.143v62.171c182.857 21.943 325.486 182.857 325.486 373.029 0 208.457-164.571 376.686-369.371 376.686zM384 868.571c157.257 0 281.6-128 281.6-285.257s-124.343-285.257-281.6-285.257c-157.257 0-281.6 128-281.6 285.257s124.343 285.257 281.6 285.257z" />
<glyph unicode="&#xe935;" glyph-name="icon-boy" data-tags="icon-boy" d="M1019.733 908.8c0 0 0 0 0 0 0 4.267 0 4.267 0 4.267s0 0 0 4.267c0 0 0 0 0 4.267 0 0 0 0 0 4.267 0 0 0 0 0 0s0 0 0 4.267c0 0 0 0 0 0s0 0 0 4.267c0 0 0 0 0 0s0 0 0 4.267c0 0 0 0 0 0s0 0 0 4.267c0 0 0 0 0 0 0 4.267-4.267 4.267-8.533 8.533 0 0 0 0 0 0s0 0-4.267 0c0 0 0 0 0 0s0 0 0 0 0 0 0 0 0 0-4.267 0c0 0 0 0 0 0s0 0-4.267 0c0 0 0 0 0 0s0 0-4.267 0c0 0 0 0-4.267 0 0 0 0 0-4.267 0 0 0-4.267 0-4.267 0s0 0 0 0h-174.933c-25.6 0-46.933-21.333-46.933-46.933s21.333-46.933 46.933-46.933h46.933l-136.533-136.533c-76.8 64-174.933 98.133-273.067 98.133-115.2 0-226.133-46.933-311.467-128-81.067-81.067-128-192-128-311.467 0-115.2 46.933-226.133 128-311.467 81.067-81.067 192-128 311.467-128 115.2 0 226.133 46.933 311.467 128 81.067 81.067 128 192 128 311.467 0 102.4-34.133 196.267-98.133 273.067l136.533 136.533v-59.733c0-25.6 21.333-46.933 46.933-46.933s46.933 21.333 46.933 46.933l4.267 179.2c0 0 0 0 0 0zM686.933 136.533c-64-64-149.333-98.133-243.2-98.133-89.6 0-179.2 34.133-243.2 98.133s-98.133 149.333-98.133 243.2c0 89.6 34.133 179.2 98.133 243.2s149.333 98.133 243.2 98.133c89.6 0 179.2-34.133 243.2-98.133s98.133-149.333 98.133-243.2c0-93.867-34.133-179.2-98.133-243.2z" />
<glyph unicode="&#xe936;" glyph-name="icon-setting-2" data-tags="icon-setting-2" d="M945.067 556.8l-72.533-44.8c6.4-21.333 6.4-44.8 6.4-66.133s0-44.8-6.4-66.133l72.533-44.8c27.733-17.067 38.4-55.467 21.333-83.2l-61.867-110.933c-17.067-27.733-55.467-38.4-83.2-21.333l-72.533 44.8c-34.133-27.733-72.533-55.467-117.333-66.133v-55.467c0-34.133-27.733-61.867-61.867-61.867h-121.6c-34.133 0-61.867 27.733-61.867 61.867v55.467c-44.8 17.067-83.2 38.4-117.333 66.133l-55.467-49.067c-27.733-17.067-66.133-6.4-83.2 21.333l-61.867 110.933c-34.133 27.733-21.333 66.133 10.667 83.2l72.533 44.8c-6.4 21.333-6.4 44.8-6.4 66.133s0 44.8 6.4 66.133l-72.533 49.067c-34.133 17.067-44.8 55.467-27.733 89.6l61.867 110.933c17.067 27.733 55.467 38.4 83.2 21.333l72.533-44.8c34.133 27.733 72.533 55.467 117.333 66.133v55.467c0 34.133 27.733 61.867 61.867 61.867h121.6c21.333 0 49.067-27.733 49.067-61.867v-55.467c44.8-17.067 83.2-38.4 117.333-66.133l66.133 44.8c27.733 17.067 66.133 6.4 83.2-21.333l61.867-110.933c42.667-34.133 32-72.533-2.133-89.6zM512 640c-104.533 0-194.133-89.6-194.133-194.133s89.6-194.133 194.133-194.133 194.133 89.6 194.133 194.133-83.2 194.133-194.133 194.133zM512 307.2c-76.8 0-138.667 61.867-138.667 138.667s61.867 138.667 138.667 138.667 138.667-61.867 138.667-138.667-61.867-138.667-138.667-138.667z" />
<glyph unicode="&#xe937;" glyph-name="icon-customers" data-tags="icon-customers" d="M787.2 349.867c-66.133-76.8-164.267-128-275.2-128s-209.067 49.067-275.2 128c-74.667-21.333-130.133-89.6-130.133-172.8v-134.4h810.667v134.4c0 83.2-55.467 151.467-130.133 172.8zM789.333 576c0-153.167-124.166-277.333-277.333-277.333s-277.333 124.166-277.333 277.333c0 153.167 124.166 277.333 277.333 277.333s277.333-124.166 277.333-277.333z" />
<glyph unicode="&#xe938;" glyph-name="icon-Recording" data-tags="icon-Recording" d="M512 149.333c0 0 298.667 264.533 298.667 469.333 0 164.267-134.4 298.667-298.667 298.667s-298.667-134.4-298.667-298.667c0-204.8 298.667-469.333 298.667-469.333zM381.867 618.667c0 72.533 57.6 130.133 130.133 130.133s130.133-57.6 130.133-130.133-57.6-130.133-130.133-130.133-130.133 57.6-130.133 130.133zM776.533 354.133c-14.933-23.467-32-49.067-49.067-70.4 66.133-27.733 104.533-64 104.533-91.733 0-49.067-119.467-123.733-302.933-128-6.4 0-10.667 0-17.067 0s-10.667 0-17.067 0c-183.467 4.267-302.933 78.933-302.933 128 0 27.733 38.4 64 104.533 89.6-17.067 23.467-34.133 46.933-49.067 70.4-85.333-38.4-140.8-96-140.8-160 0-117.333 181.333-213.333 405.333-213.333s405.333 96 405.333 213.333c0 64-55.467 121.6-140.8 162.133z" />
<glyph unicode="&#xe939;" glyph-name="icon-position2" data-tags="icon-position2" d="M512 524.8c87.040 0 153.6 66.56 153.6 153.6s-66.56 153.6-153.6 153.6-153.6-71.68-153.6-153.6c0-81.92 66.56-153.6 153.6-153.6zM512 780.8c56.32 0 102.4-46.080 102.4-102.4s-46.080-102.4-102.4-102.4-102.4 46.080-102.4 102.4c0 56.32 46.080 102.4 102.4 102.4zM512 960c-199.68 0-363.52-163.84-363.52-363.52 0-66.56 40.96-168.96 107.52-291.84 20.48-35.84 40.96-71.68 66.56-112.64 35.84-61.44 76.8-117.76 117.76-179.2 15.36-20.48 25.6-35.84 40.96-56.32 5.12-10.24 10.24-15.36 15.36-20.48 10.24-10.24 25.6-10.24 35.84 0 5.12 5.12 10.24 10.24 15.36 20.48 10.24 15.36 25.6 35.84 40.96 56.32 40.96 56.32 81.92 117.76 117.76 179.2 25.6 40.96 46.080 76.8 66.56 112.64 66.56 122.88 107.52 220.16 107.52 291.84-5.12 199.68-168.96 363.52-368.64 363.52zM194.56 596.48c0 179.2 143.36 317.44 317.44 317.44s317.44-143.36 317.44-317.44c0-51.2-30.72-133.12-81.92-235.52l-40.96 40.96c-25.6 25.6-66.56 40.96-102.4 40.96h-179.2c-35.84 0-76.8-20.48-102.4-40.96l-46.080-46.080c-51.2 107.52-81.92 189.44-81.92 240.64zM665.6 217.6c-35.84-61.44-76.8-117.76-117.76-174.080-15.36-20.48-35.84-51.2-35.84-51.2s-20.48 30.72-35.84 51.2c-40.96 56.32-81.92 117.76-117.76 174.080-20.48 35.84-40.96 66.56-61.44 102.4l56.32 56.32c15.36 15.36 51.2 30.72 71.68 30.72h179.2c20.48 0 56.32-15.36 71.68-30.72l51.2-51.2c-20.48-35.84-40.96-71.68-61.44-107.52z" />
<glyph unicode="&#xe93a;" glyph-name="icon-position" data-tags="icon-position" d="M512 780.8c-87.040 0-153.6-71.68-153.6-153.6s66.56-153.6 153.6-153.6 153.6 66.56 153.6 153.6-66.56 153.6-153.6 153.6zM512 524.8c-56.32 0-102.4 46.080-102.4 102.4s46.080 102.4 102.4 102.4 102.4-46.080 102.4-102.4c0-56.32-46.080-102.4-102.4-102.4zM512 960c-199.68 0-363.52-163.84-363.52-363.52 0-66.56 40.96-168.96 107.52-291.84 20.48-35.84 40.96-71.68 66.56-112.64 35.84-61.44 76.8-117.76 117.76-179.2 15.36-20.48 25.6-35.84 40.96-56.32 5.12-10.24 10.24-15.36 15.36-20.48 10.24-10.24 25.6-10.24 35.84 0 5.12 5.12 10.24 10.24 15.36 20.48 10.24 15.36 25.6 35.84 40.96 56.32 40.96 56.32 81.92 117.76 117.76 179.2 25.6 40.96 46.080 76.8 66.56 112.64 66.56 122.88 107.52 220.16 107.52 291.84-5.12 199.68-168.96 363.52-368.64 363.52zM732.16 330.24c-20.48-35.84-40.96-71.68-66.56-112.64-35.84-61.44-76.8-117.76-117.76-174.080-15.36-20.48-35.84-51.2-35.84-51.2s-20.48 30.72-35.84 51.2c-40.96 56.32-81.92 117.76-117.76 174.080-25.6 35.84-46.080 76.8-66.56 112.64-66.56 117.76-102.4 209.92-102.4 271.36 0 179.2 143.36 317.44 317.44 317.44s317.44-143.36 317.44-317.44c5.12-61.44-30.72-153.6-92.16-271.36z" />
<glyph unicode="&#xe93b;" glyph-name="icon-library" data-tags="icon-library" d="M547.84 714.24v0h-61.44c-61.44 0-107.52-51.2-107.52-107.52v0-15.36c0-10.24 5.12-15.36 10.24-15.36h245.76c10.24 0 10.24 10.24 10.24 15.36v15.36c10.24 56.32-35.84 102.4-97.28 107.52zM619.52 601.6h-204.8v15.36c0 35.84 30.72 66.56 71.68 66.56h71.68c35.84 0 71.68-30.72 71.68-66.56v-15.36h-10.24zM517.12 729.6c40.96 0 76.8 35.84 76.8 76.8s-35.84 76.8-76.8 76.8-76.8-35.84-76.8-76.8 35.84-76.8 76.8-76.8zM517.12 847.36c25.6 0 46.080-20.48 46.080-40.96s-20.48-46.080-46.080-46.080-40.96 20.48-40.96 46.080 15.36 40.96 40.96 40.96zM174.080 376.32c10.24 0 15.36 5.12 15.36 15.36 0 97.28 46.080 184.32 122.88 245.76 5.12 5.12 10.24 15.36 5.12 20.48v0c-5.12 10.24-15.36 10.24-25.6 5.12-81.92-66.56-133.12-163.84-133.12-271.36 0-5.12 10.24-15.36 15.36-15.36zM619.52 94.72c-66.56-20.48-138.24-20.48-204.8 0-10.24 5.12-15.36 0-20.48-10.24v0c0-10.24 0-15.36 10.24-20.48 35.84-10.24 71.68-15.36 112.64-15.36s76.8 5.12 112.64 20.48c10.24 5.12 10.24 15.36 5.12 20.48 0 5.12-5.12 5.12-15.36 5.12zM706.56 647.68c87.040-61.44 138.24-153.6 138.24-256 0-10.24 5.12-15.36 15.36-15.36s15.36 10.24 15.36 15.36c0 112.64-56.32 215.040-153.6 281.6-5.12 5.12-15.36 0-20.48-5.12s-5.12-15.36 5.12-20.48v0zM225.28 156.16v0h-61.44c-61.44 0-107.52-51.2-107.52-107.52v0-15.36c0-10.24 5.12-20.48 15.36-20.48h245.76c10.24 0 10.24 10.24 10.24 15.36 0 0 0 10.24 0 15.36 0 61.44-46.080 107.52-102.4 112.64zM296.96 43.52h-209.92v10.24c0 35.84 30.72 66.56 71.68 66.56h71.68c35.84 0 71.68-30.72 71.68-66.56v-10.24h-5.12zM194.56 171.52c40.96 0 76.8 35.84 76.8 76.8s-35.84 76.8-76.8 76.8-76.8-35.84-76.8-76.8c-5.12-40.96 30.72-76.8 76.8-76.8zM194.56 289.28c25.6 0 46.080-20.48 46.080-40.96 0-25.6-20.48-40.96-46.080-40.96s-46.080 20.48-46.080 40.96 20.48 40.96 46.080 40.96zM870.4 156.16v0h-61.44c-61.44 0-107.52-51.2-107.52-107.52v0-15.36c0-10.24 5.12-15.36 10.24-15.36h245.76c10.24 0 10.24 10.24 10.24 15.36v15.36c10.24 56.32-35.84 102.4-97.28 107.52zM947.2 43.52h-209.92v10.24c0 35.84 30.72 66.56 71.68 66.56h66.56c35.84 0 71.68-30.72 71.68-66.56v-10.24zM762.88 248.32c0-40.96 35.84-76.8 76.8-76.8s76.8 35.84 76.8 76.8-35.84 76.8-76.8 76.8c-40.96 0-76.8-35.84-76.8-76.8zM885.76 248.32c0-25.6-20.48-40.96-46.080-40.96s-46.080 20.48-46.080 40.96c0 25.6 20.48 40.96 46.080 40.96s46.080-20.48 46.080-40.96z" />
<glyph unicode="&#xe93c;" glyph-name="icon-tree-camera" data-tags="icon-tree-camera" d="M505.6 864l-283.733-185.6 136.533-241.067h-160v12.8c0 70.4-57.6 128-128 128h-6.4v-420.267h6.4c70.4 0 128 57.6 128 128v12.8h241.067l151.467-266.667 369.067 34.133-454.4 797.867zM518.4 708.267l36.267-59.733-55.467-36.267-36.267 59.733 55.467 36.267zM313.6 657.067l57.6 36.267 279.467-499.2-57.6-36.267-279.467 499.2z" />
<glyph unicode="&#xe93d;" glyph-name="icon-no" data-tags="icon-no" d="M327.68 366.080c0-30.72 0-51.2 5.12-61.44v0c0 5.12-10.24 15.36-15.36 30.72l-215.040 327.68h-71.68v-424.96h56.32v296.96c0 30.72 0 51.2 0 61.44v0c0-10.24 5.12-20.48 15.36-30.72l215.040-332.8h66.56v430.080h-56.32v-296.96zM665.6 668.16c-61.44 0-112.64-20.48-153.6-61.44-35.84-40.96-51.2-97.28-51.2-163.84 0-61.44 20.48-117.76 56.32-153.6 35.84-40.96 87.040-61.44 143.36-61.44 61.44 0 112.64 20.48 148.48 61.44s56.32 97.28 56.32 163.84c0 61.44-20.48 117.76-56.32 153.6-35.84 40.96-81.92 61.44-143.36 61.44zM768 320c-25.6-30.72-61.44-46.080-107.52-46.080-40.96 0-76.8 15.36-102.4 46.080-25.6 35.84-40.96 76.8-40.96 128s15.36 92.16 40.96 122.88 61.44 46.080 107.52 46.080 76.8-15.36 102.4-46.080 35.84-71.68 35.84-128c0-51.2-10.24-92.16-35.84-122.88zM983.040 289.28c-5.12 5.12-15.36 10.24-25.6 10.24s-20.48-5.12-25.6-10.24c-5.12-5.12-10.24-15.36-10.24-25.6s5.12-15.36 10.24-25.6c5.12-5.12 15.36-10.24 25.6-10.24s20.48 5.12 25.6 10.24c5.12 5.12 10.24 15.36 10.24 25.6s-5.12 15.36-10.24 25.6z" />
<glyph unicode="&#xe93e;" glyph-name="icon-message" data-tags="icon-message" horiz-adv-x="1092" d="M546.133 960c-300.373 0-546.133-218.453-546.133-484.693 0-95.573 27.307-184.32 88.747-259.413-13.653-116.053-40.96-204.8-81.92-245.76-6.827-6.827-6.827-20.48-6.827-27.307s6.827-6.827 13.653-6.827c0 0 0 0 0 0 6.827 0 177.493 27.307 300.373 95.573 68.267-27.307 143.36-40.96 225.28-40.96 300.373 0 546.133 218.453 546.133 484.693 6.827 266.24-238.933 484.693-539.307 484.693zM293.547 400.213c-40.96 0-75.093 34.133-75.093 75.093s34.133 75.093 75.093 75.093 75.093-34.133 75.093-75.093c-6.827-40.96-34.133-75.093-75.093-75.093zM546.133 400.213c-40.96 0-75.093 34.133-75.093 75.093s34.133 75.093 75.093 75.093c40.96 0 75.093-34.133 75.093-75.093s-34.133-75.093-75.093-75.093zM798.72 400.213c-40.96 0-75.093 34.133-75.093 75.093s34.133 75.093 75.093 75.093c40.96 0 75.093-34.133 75.093-75.093s-34.133-75.093-75.093-75.093z" />
<glyph unicode="&#xe93f;" glyph-name="icon-import" data-tags="icon-import" horiz-adv-x="1109" d="M1058.133 618.667c-34.133 0-59.733 25.6-59.733 59.733v170.667h-887.467v-170.667c0-34.133-25.6-59.733-59.733-59.733s-51.2 25.6-51.2 59.733v221.867c0 34.133 25.6 59.733 51.2 59.733h998.4c34.133 0 59.733-25.6 59.733-59.733v-230.4c0-25.6-25.6-51.2-51.2-51.2zM512 755.2c25.6 25.6 59.733 25.6 76.8 0l315.733-324.267c25.6-25.6 25.6-59.733 0-76.8-25.6-25.6-59.733-25.6-76.8 0l-213.333 221.867v-580.267c0-34.133-25.6-59.733-59.733-59.733s-59.733 25.6-59.733 59.733v580.267l-213.333-221.867c-25.6-25.6-59.733-25.6-76.8 0-25.6 25.6-25.6 59.733 0 76.8l307.2 324.267z" />
<glyph unicode="&#xe940;" glyph-name="icon-phone" data-tags="icon-phone" d="M1024 154.453c0-13.653 0-34.133-13.653-40.96l-143.36-143.36c-6.827-6.827-13.653-13.653-27.307-20.48s-20.48-13.653-34.133-13.653c0 0 0 0-6.827 0s-6.827 0-13.653 0c-13.653 0-34.133 0-68.267 6.827-27.307 6.827-68.267 13.653-116.053 34.133s-95.573 47.787-150.187 81.92c-54.613 34.133-116.053 88.747-177.493 150.187-47.787 47.787-95.573 95.573-122.88 143.36-34.133 47.787-61.44 88.747-81.92 129.707s-34.133 75.093-40.96 102.4c-13.653 34.133-20.48 61.44-20.48 81.92-6.827 27.307-6.827 40.96-6.827 54.613s0 20.48 0 20.48c0 13.653 6.827 20.48 13.653 34.133s13.653 20.48 20.48 27.307l143.36 143.36c6.827 6.827 20.48 13.653 34.133 13.653 6.827 0 20.48 0 27.307-6.827s13.653-13.653 20.48-20.48l116.053-218.453c0-13.653 0-27.307 0-40.96s-6.827-27.307-20.48-34.133l-54.613-54.613c0 0 0-6.827-6.827-6.827 0 0 0-6.827 0-6.827 0-13.653 6.827-34.133 20.48-54.613 13.653-13.653 20.48-34.133 40.96-61.44s40.96-54.613 75.093-88.747c34.133-34.133 61.44-61.44 88.747-75.093 27.307-20.48 47.787-34.133 61.44-40.96s27.307-13.653 40.96-13.653h13.653c0 0 6.827 0 6.827 0s6.827 0 6.827 6.827l61.44 61.44c13.653 13.653 27.307 20.48 47.787 20.48 13.653 0 20.48 0 27.307-6.827v0l211.627-122.88c13.653-20.48 27.307-27.307 27.307-40.96z" />
<glyph unicode="&#xe941;" glyph-name="icon-police-badge" data-tags="icon-police-badge" horiz-adv-x="819" d="M778.24 704c0 107.52 35.84 158.72 35.84 158.72 5.12 10.24 5.12 20.48 0 30.72l-61.44 66.56c-10.24 0-20.48 0-25.6-5.12 0 0-71.68-40.96-153.6-40.96s-153.6 40.96-153.6 40.96c-5.12 5.12-15.36 5.12-20.48 0 0 0-71.68-40.96-153.6-40.96s-153.6 40.96-153.6 40.96c-5.12 5.12-15.36 5.12-25.6 0l-61.44-66.56c-5.12-5.12-5.12-20.48 0-25.6 0 0 35.84-51.2 35.84-158.72 0-46.080-5.12-81.92-15.36-117.76-10.24-56.32-25.6-112.64-25.6-225.28 0-204.8 148.48-296.96 399.36-424.96 5.12 0 5.12 0 10.24 0s5.12 0 10.24 0c250.88 128 399.36 220.16 399.36 424.96 0 112.64-15.36 168.96-25.6 220.16-10.24 40.96-15.36 76.8-15.36 122.88zM629.76 519.68l-92.16-97.28 35.84-153.6c0-5.12 5.12-5.12 5.12-10.24 0-10.24-10.24-20.48-20.48-20.48v0c-5.12 0-5.12 0-10.24 5.12l-138.24 71.68-133.12-76.8c-5.12-5.12-15.36-5.12-20.48 0s-10.24 15.36-5.12 20.48l35.84 158.72-97.28 102.4c-5.12 5.12-5.12 15.36-5.12 20.48 5.12 10.24 10.24 15.36 20.48 15.36l133.12 20.48 56.32 138.24c5.12 15.36 30.72 15.36 35.84 0l56.32-138.24 128-20.48c5.12 0 15.36-5.12 15.36-15.36 5.12-10.24 5.12-15.36 0-20.48z" />
<glyph unicode="&#xe942;" glyph-name="icon-face" data-tags="icon-face" horiz-adv-x="1293" d="M1164.126 960h-1034.779c-70.063 0-129.347-59.284-129.347-129.347v-765.305c0-70.063 59.284-129.347 129.347-129.347h1034.779c70.063 0 129.347 59.284 129.347 129.347v765.305c0 70.063-59.284 129.347-129.347 129.347zM1164.126 65.347h-1034.779v765.305h1034.779v-765.305zM582.063 313.263h-323.368v-113.179h323.368v113.179zM582.063 507.284h-323.368v-113.179h323.368v113.179zM582.063 695.916h-323.368v-113.179h323.368v113.179zM1029.389 286.316c0 0-107.789 26.947-107.789 86.232 0 53.895 70.063 75.453 70.063 183.242 0 86.232-26.947 140.126-118.568 140.126s-118.568-53.895-118.568-140.126c0-107.789 70.063-129.347 70.063-183.242s-107.789-86.232-107.789-86.232c-5.389 0-5.389-91.621-5.389-91.621h323.368c0 5.389 0 91.621-5.389 91.621z" />
<glyph unicode="&#xe943;" glyph-name="icon-data" data-tags="icon-data" horiz-adv-x="1103" d="M1024-64h-1024v866.462h236.308v157.538h78.769v-157.538h472.615v157.538h78.769v-157.538h236.308v-866.462h-78.769zM1024 723.692h-157.538v-78.769h-78.769v78.769h-472.615v-78.769h-78.769v78.769h-157.538v-708.923h945.231v708.923zM866.462 408.615h-630.154v78.769h630.154v-78.769zM866.462 251.077h-630.154v78.769h630.154v-78.769z" />
<glyph unicode="&#xe944;" glyph-name="icon-voice" data-tags="icon-voice" horiz-adv-x="751" d="M375.467 311.467c88.747 0 163.84 68.267 163.84 163.84v320.853c0 95.573-75.093 163.84-163.84 163.84s-163.84-68.267-163.84-163.84v-320.853c0-88.747 75.093-163.84 163.84-163.84zM662.187 475.307c0-163.84-136.533-273.067-286.72-273.067s-286.72 116.053-286.72 273.067h-88.747c0-184.32 143.36-334.507 320.853-361.813v-177.493h109.227v177.493c177.493 27.307 320.853 177.493 320.853 361.813h-88.747z" />
<glyph unicode="&#xe945;" glyph-name="icon-arrow-right" data-tags="icon-arrow-right" horiz-adv-x="626" d="M133.689-55.467l-39.822 39.822 440.889 440.889-420.978 486.4 39.822 39.822 460.8-529.067-480.711-477.867zM381.156 459.378l34.133-36.978-369.778-341.333-34.133 36.978 329.956 304.356-301.511 321.422 42.667 34.133 298.667-318.578z" />
<glyph unicode="&#xe946;" glyph-name="icon-camera" data-tags="icon-camera" horiz-adv-x="1293" d="M646.737 690.526c-156.295 0-285.642-123.958-285.642-280.253s129.347-280.253 285.642-280.253 285.642 123.958 285.642 280.253c0 150.905-123.958 280.253-285.642 280.253zM646.737 253.979c-91.621 0-161.684 70.063-161.684 156.295s70.063 156.295 161.684 156.295c91.621 0 161.684-70.063 161.684-156.295s-70.063-156.295-161.684-156.295zM1077.895 884.547h-145.516l-53.895 59.284c-10.779 5.389-32.337 16.168-43.116 16.168h-371.874c-16.168 0-32.337-10.779-43.116-16.168l-53.895-59.284h-107.789v32.337c0 10.779-5.389 16.168-16.168 16.168h-118.568c-5.389 0-16.168-5.389-16.168-16.168v-32.337h-53.895c-32.337 0-53.895-21.558-53.895-53.895v-786.863c0-59.284 48.505-107.789 107.789-107.789h1077.895c59.284 0 107.789 48.505 107.789 107.789v630.568c0 113.179-97.011 210.189-215.579 210.189zM1158.737 65.347h-1024v684.463h943.158c43.116 0 80.842-37.726 80.842-80.842v-603.621zM258.695 685.137c-26.947 0-53.895-21.558-53.895-53.895 0-26.947 21.558-53.895 53.895-53.895s53.895 21.558 53.895 53.895c0 32.337-26.947 53.895-53.895 53.895zM646.737 491.116c-43.116 0-80.842-37.726-80.842-80.842s37.726-80.842 80.842-80.842 80.842 37.726 80.842 80.842c0 43.116-37.726 80.842-80.842 80.842z" />
<glyph unicode="&#xe947;" glyph-name="icon-back" data-tags="icon-back" d="M42.667 448l341.333 341.333 59.733-59.733-236.8-238.933h774.4v-85.333h-774.4l236.8-238.933-59.733-59.733-281.6 281.6z" />
<glyph unicode="&#xe948;" glyph-name="icon-crop" data-tags="icon-crop" horiz-adv-x="973" d="M127.859 880h246.24v-108h-207.36v-198.72h-90.72v306.72h51.84zM767.219 266.56h129.6v-108h-129.6v-142.56h-103.68v146.88h-198.72v108h194.4v198.72h108v-203.040zM464.819 880h302.4v-302.4h-103.68v194.4h-198.72v108zM374.099 162.88h-298.080v306.72h90.72v-198.72h207.36v-108z" />
<glyph unicode="&#xe949;" glyph-name="icon-video" data-tags="icon-video" d="M512-64c-281.6 0-512 228.073-512 512s230.4 512 512 512c281.6 0 512-230.4 512-512 0-283.927-230.4-512-512-512zM384 706.327v-514.327l384 288.582-384 225.745z" />
<glyph unicode="&#xe94a;" glyph-name="icon-idcard3" data-tags="icon-idcard3" d="M870.4 140.8h-716.8c-30.72 0-51.2 20.48-51.2 51.2v512c0 30.72 20.48 51.2 51.2 51.2h716.8c30.72 0 51.2-20.48 51.2-51.2v-512c0-30.72-20.48-51.2-51.2-51.2zM558.080 192c-10.24 87.040-81.92 153.6-174.080 153.6s-163.84-66.56-174.080-153.6h348.16zM870.4 704h-716.8v-512h5.12c15.36 112.64 107.52 204.8 225.28 204.8s215.040-92.16 225.28-204.8h261.12v512zM819.2 550.4h-204.8v51.2h204.8v-51.2zM819.2 396.8h-204.8v51.2h204.8v-51.2zM819.2 243.2h-204.8v51.2h204.8v-51.2zM256 524.8c0 71.68 56.32 128 128 128s128-56.32 128-128-56.32-128-128-128-128 56.32-128 128zM384 448c40.96 0 76.8 35.84 76.8 76.8s-35.84 76.8-76.8 76.8-76.8-35.84-76.8-76.8 35.84-76.8 76.8-76.8z" />
<glyph unicode="&#xe94b;" glyph-name="icon-monitor2" data-tags="icon-monitor2" horiz-adv-x="827" d="M823.138 499.2c-35.446-322.954-378.092-543.508-378.092-543.508-7.877-7.877-11.815-11.815-19.692-15.754v0l-7.877-3.938-11.815 3.938c-3.938 3.938-11.815 7.877-15.754 15.754 0 0-346.585 220.554-382.031 543.508-7.877 15.754-7.877 31.508-7.877 47.262 0 228.431 185.108 413.538 413.538 413.538s413.538-185.108 413.538-413.538c0-15.754 0-31.508-3.938-47.262zM413.538 833.969c-157.538 0-287.508-129.969-287.508-287.508 0-82.708 35.446-153.6 86.646-204.8 3.938 63.015 59.077 102.4 110.277 133.908 27.569-27.569 47.262-23.631 90.585-23.631s59.077-3.938 90.585 23.631c51.2-35.446 106.338-70.892 110.277-133.908 55.138 51.2 86.646 126.031 86.646 204.8 0 161.477-129.969 287.508-287.508 287.508zM413.538 495.262c-66.954 0-122.092 55.138-122.092 122.092s55.138 122.092 122.092 122.092 122.092-55.138 122.092-122.092-55.138-122.092-122.092-122.092z" />
<glyph unicode="&#xe94c;" glyph-name="aui-icon-carsearch2" data-tags="aui-icon-carsearch2" d="M1024 25.6l-89.6-89.6-174.933 174.933c-81.067-59.733-179.2-98.133-285.867-98.133-260.267 0-473.6 213.333-473.6 473.6s213.333 473.6 473.6 473.6 473.6-213.333 473.6-473.6c0-106.667-38.4-209.067-98.133-285.867l174.933-174.933zM473.6 832c-192 0-345.6-153.6-345.6-345.6 0-93.867 38.4-179.2 98.133-238.933 25.6 46.933 72.533 85.333 123.733 115.2 38.4-38.4 68.267-38.4 128-38.4s89.6 0 128 38.4c46.933-34.133 93.867-68.267 123.733-115.2 59.733 64 98.133 145.067 98.133 238.933-4.267 192-162.133 345.6-354.133 345.6zM473.6 379.733c-89.6 0-166.4 72.533-166.4 166.4s76.8 162.133 166.4 162.133 166.4-72.533 166.4-166.4-76.8-162.133-166.4-162.133z" />
<glyph unicode="&#xe94d;" glyph-name="icon-activation" data-tags="icon-activation" d="M106.667 853.333v-810.667h405.333v85.333h-320v640h640v-320h85.333v405.333zM706.133 552.533h-320v-320l130.133 130.133 341.333-320 59.733 59.733-341.333 320z" />
<glyph unicode="&#xe94e;" glyph-name="icon-crowd" data-tags="icon-crowd" d="M1022.809 193.191c0-13.098-10.716-23.814-23.814-23.814h-111.926v162.53c-10.716 60.13-122.642 112.521-189.321 139.907-2.381 2.977-4.763 5.358-7.144 8.335 22.623 37.507 35.721 82.753 35.721 131.572 0 32.149-5.953 62.512-16.074 90.493 19.051 15.479 42.27 24.409 67.274 24.409 67.274 0 121.451-64.893 121.451-145.265 0-57.153-27.981-106.567-67.87-130.381l186.94-95.851c0-1.191 0-2.977 0-4.763 2.977-4.167 4.763-8.93 4.763-14.288v-142.884zM575.702 451.572l233.972-119.665c0-1.786 0-3.572 0-5.953 3.572-4.763 5.953-11.312 5.953-17.86v-178.605c0-16.67-13.098-29.767-29.767-29.767h-547.721c-16.67 0-29.767 13.098-29.767 29.767v178.605c0 9.526 4.763 18.456 11.907 23.814 0 0 0 0 0 0h0.595c2.381 1.786 4.763 2.977 7.144 3.572l217.302 114.307c-51.795 29.172-88.112 91.684-88.112 164.912 0 100.019 67.87 181.581 151.814 181.581s151.814-81.563 151.814-181.581c0-71.442-34.53-133.358-85.135-163.126zM325.060 475.981c-98.233-55.367-188.13-111.926-188.13-144.074v-162.53h-111.926c-13.098 0-23.814 10.716-23.814 23.814v142.884c0 7.74 3.572 14.884 9.526 19.051 0 0 0 0 0 0h0.595c1.786 1.191 3.572 2.381 5.953 2.977l173.247 91.684c-41.674 23.219-70.251 73.228-70.251 131.572 0 80.372 54.177 145.265 121.451 145.265 26.791 0 51.2-10.121 70.847-27.386-9.526-26.791-14.884-56.558-14.884-87.516 0-47.033 12.502-91.088 33.935-128-2.381-2.381-4.167-5.358-6.549-7.74z" />
<glyph unicode="&#xe94f;" glyph-name="icon-fullScreen" data-tags="icon-fullScreen" d="M0-64h808.421v808.421h-808.421v-808.421zM107.789 636.632h592.842v-592.842h-592.842v592.842zM188.632 960v-107.789h727.579v-646.737h107.789v754.526h-835.368z" />
<glyph unicode="&#xe950;" glyph-name="icon-Upload" data-tags="icon-Upload" horiz-adv-x="1378" d="M689.231 849.723c199.694 0 340.688-160.517 321.951-389.097 100.917 2.64 256.369-43.099 256.369-213.487 0-110.761-90.796-200.862-202.412-200.862h-751.816c-111.616 0-202.412 90.101-202.412 200.862 0 160.517 143.366 219.972 256.369 213.487-9.658 242.067 127.693 389.097 321.951 389.097zM689.231 960c-230.088 0-417.387-178.688-429.563-403.456-147.61-26.34-259.668-153.941-259.668-307.655 0-172.772 141.465-312.889 315.897-312.889h746.667c174.433 0 315.897 140.117 315.897 312.889 0 153.714-112.057 281.316-259.668 307.655-12.176 224.768-199.475 403.456-429.563 403.456zM459.487 384.985h172.308v-228.431h114.872v228.431h172.308l-229.744 228.431-229.744-228.431z" />
<glyph unicode="&#xe951;" glyph-name="icon-card" data-tags="icon-card" d="M398.866 787.121v-225.986h-225.986v225.986h225.986zM455.362 843.617h-338.979v-338.979h338.979v338.979zM850.838 787.121v-225.986h-225.986v225.986h225.986zM907.335 843.617h-338.979v-338.979h338.979v338.979zM398.866 335.148v-225.986h-225.986v225.986h225.986zM455.362 391.645h-338.979v-338.979h338.979v338.979zM850.838 335.148v-225.986h-225.986v225.986h225.986zM907.335 391.645h-338.979v-338.979h338.979v338.979z" />
<glyph unicode="&#xe952;" glyph-name="icon-save" data-tags="icon-save" d="M716.941 815.369h-515.814v-734.455h621.462v621.462zM540.107 645.879h-56.497v112.993h56.497zM766.093 137.41h-508.469v621.462h112.993v-169.49h282.483v169.49h39.265l73.728-79.095z" />
<glyph unicode="&#xe953;" glyph-name="icon-play" data-tags="icon-play" d="M512 928c-265.6 0-480-214.4-480-480s214.4-480 480-480c265.6 0 480 214.4 480 480s-214.4 480-480 480zM512 838.4c214.4 0 390.4-176 390.4-390.4s-176-390.4-390.4-390.4c-214.4 0-390.4 176-390.4 390.4s176 390.4 390.4 390.4zM416 640l288-182.4-288-233.6v416z" />
<glyph unicode="&#xe954;" glyph-name="icon-customers2" data-tags="icon-customers2" d="M0-64c0 204.8 102.4 384 250.88 481.28 66.56-66.56 158.72-107.52 261.12-107.52s194.56 40.96 261.12 107.52c148.48-97.28 250.88-276.48 250.88-481.28h-1024zM512 401.92c-153.6 0-281.6 122.88-281.6 281.6s128 276.48 281.6 276.48 281.6-122.88 281.6-281.6-128-276.48-281.6-276.48z" />
<glyph unicode="&#xe955;" glyph-name="icon-file" data-tags="icon-file" horiz-adv-x="853" d="M554.667 960l298.667-298.667v-640c0-46.933-38.4-85.333-85.333-85.333h-682.667c-46.933 0-85.333 38.4-85.333 85.333v853.333c0 46.933 38.4 85.333 85.333 85.333h469.333zM554.667 874.667v-213.333h213.333l-213.333 213.333zM170.667 362.667v-85.333h512v85.333h-512zM170.667 192v-85.333h512v85.333h-512zM170.667 746.667v-298.667h298.667v298.667h-298.667z" />
<glyph unicode="&#xe956;" glyph-name="icon-process" data-tags="icon-process" d="M85.333 718.933l273.067-268.8-268.8-273.067 59.733-61.867 270.933 275.2 59.733 59.733-334.933 330.667zM938.667 450.133l-334.933 330.667-59.733-61.867 273.067-268.8-268.8-273.067 61.867-61.867 268.8 275.2z" />
<glyph unicode="&#xe957;" glyph-name="icon-news" data-tags="icon-news" d="M799.9 278.7c7 0.2 14-1.2 20.7-5.6-24.3 15.6-40.3 42.8-40.3 73.9v173.5c0 127.1-91.9 233.2-214.7 259.3v6.2c0 32.4-26.2 58.5-58.5 58.5s-58.5-26.2-58.5-58.5v-6.2c-122.8-26.1-214.7-132.1-214.7-259.3v-173.5c0-31.1-16.1-58.3-40.3-73.9 6.8 4.4 13.7 5.9 20.7 5.6-21.5-0.1-38.9-17.4-38.9-39s17.4-39 39-39h585.3c21.6 0 39 17.4 39 39 0.1 21.4-17.3 38.9-38.8 39zM507.2 64c53.9 0 97.6 43.7 97.6 97.6h-195.2c0-53.9 43.6-97.6 97.6-97.6z" />
<glyph unicode="&#xe958;" glyph-name="icon-collection" data-tags="icon-collection" d="M981.344 556.8l-324.256 53.344-145.056 307.2-145.056-307.2-324.256-53.344 234.656-238.944-57.6-339.2 292.256 162.144 292.256-162.144-57.6 339.2z" />
<glyph unicode="&#xe959;" glyph-name="icon-history2" data-tags="icon-history2" d="M512 917.344c-142.944 0-270.944-64-356.256-164.256l-113.056 78.944 42.656-256 234.656 64-93.856 64c70.4 78.944 172.8 128 285.856 128 211.2 0 384-172.8 384-384s-172.8-384-384-384-384 172.8-384 384h-85.344c0-260.256 209.056-469.344 469.344-469.344s469.344 209.056 469.344 469.344-209.056 469.344-469.344 469.344zM426.656 661.344v-298.656h298.656v85.344h-213.344v213.344z" />
<glyph unicode="&#xe95a;" glyph-name="icon-pic" data-tags="icon-pic" d="M384 490.667l-170.667-298.667h597.333v512l-256-384zM938.667 917.333h-896v-938.667h938.667v938.667h-42.667zM896 64h-768v768h768v-768z" />
<glyph unicode="&#xe95b;" glyph-name="icon-compare" data-tags="icon-compare" d="M597.333 817.433c99.43-35.143 170.667-129.969 170.667-241.433s-71.237-206.29-170.667-241.433v93.599c51.012 29.509 85.333 84.664 85.333 147.835s-34.321 118.325-85.333 147.835v93.599zM938.667 21.333h-341.333v85.333h245.247c-20.197 78.472-67.599 146.023-131.552 192 23.568 16.943 44.888 36.816 63.427 59.086 99.953-78.088 164.212-199.75 164.212-336.42zM426.667 334.567c-99.43 35.143-170.667 129.969-170.667 241.433s71.237 206.29 170.667 241.433v-482.866zM85.333 21.333c0 136.67 64.259 258.331 164.212 336.42 45.127-54.208 106.73-94.215 177.122-112.333v-224.087h-341.333zM469.333 917.333h85.333v-128h-85.333v128zM469.333 746.667h85.333v-128h-85.333v128zM469.333 576h85.333v-128h-85.333v128zM469.333 405.333h85.333v-128h-85.333v128zM469.333 234.667h85.333v-128h-85.333v128zM469.333 64h85.333v-128h-85.333v128z" />
<glyph unicode="&#xe95c;" glyph-name="icon-arrow" data-tags="icon-arrow" horiz-adv-x="910" d="M455.111 960l455.111-568.889h-910.222zM284.444 391.111h341.333v-455.111h-341.333v455.111z" />
<glyph unicode="&#xe95d;" glyph-name="icon-open-app" data-tags="icon-open-app" d="M384 768v-192h-192v192h192zM469.344 853.344h-362.656v-362.656h362.656v362.656zM554.656 853.344h362.656v-362.656h-362.656v362.656zM384 320v-192h-192v192h192zM469.344 405.344h-362.656v-362.656h362.656v362.656zM832 320v-192h-192v192h192zM917.344 405.344h-362.656v-362.656h362.656v362.656z" />
<glyph unicode="&#xe95e;" glyph-name="icon-product-center" data-tags="icon-product-center" d="M469.344 917.344h85.344v-106.656h-85.344v106.656zM158.496 758.816l61.824 58.816 73.536-77.28-61.824-58.816-73.536 77.28zM742.336 732l76.384 74.464 59.584-61.088-76.384-74.464-59.584 61.088zM853.344 512h106.656v-85.344h-106.656v85.344zM64 512h106.656v-85.344h-106.656v85.344zM512 768c-164.256 0-298.656-134.4-298.656-298.656 0-100.256 51.2-189.856 128-245.344v-117.344h341.344v117.344c76.8 53.344 128 142.944 128 245.344 0 164.256-134.4 298.656-298.656 298.656zM597.344 273.056v-81.056h-170.656v81.056c-74.656 32-128 108.8-128 196.256 0 117.344 96 213.344 213.344 213.344s213.344-96 213.344-213.344c0-87.456-53.344-162.144-128-196.256zM341.344 64h341.344v-85.344h-341.344v85.344z" />
<glyph unicode="&#xe95f;" glyph-name="icon-video3" data-tags="icon-video3" d="M42.667 49.067h93.867v797.867h-93.867v-797.867zM371.2 283.733l281.6 164.267-281.6 164.267v-328.533zM887.467 846.933v-797.867h93.867v797.867h-93.867zM183.467 142.933h657.067v610.133h-657.067v-610.133zM277.333 659.2h469.333v-422.4h-469.333v422.4z" />
<glyph unicode="&#xe960;" glyph-name="icon-plans" data-tags="icon-plans" d="M810.667 490.667c-49.067-119.467-166.4-202.667-302.933-202.667-27.733 0-55.467 4.267-81.067 10.667 0-4.267 0-6.4 0-10.667 0-136.533 108.8-245.333 245.333-245.333s245.333 108.8 245.333 245.333c0 83.2-42.667 157.867-106.667 202.667zM768 618.667c0-141.385-114.615-256-256-256s-256 114.615-256 256c0 141.385 114.615 256 256 256s256-114.615 256-256zM356.267 330.667c-64 36.267-113.067 91.733-142.933 160-64-44.8-106.667-117.333-106.667-202.667 0-134.4 110.933-245.333 245.333-245.333 32 0 64 6.4 91.733 19.2-57.6 59.733-91.733 138.667-91.733 228.267 0 12.8 2.133 25.6 4.267 40.533z" />
<glyph unicode="&#xe961;" glyph-name="icon-screen" data-tags="icon-screen" d="M725.756 233.765v169.741h106.389v-169.741h169.947v-105.515h-169.947v-169.988h-106.389v169.988h-170.755v105.515h170.755zM42.667 917.333h106.232v-106.331h-106.232v106.331zM213.256 917.333h106.498v-106.331h-106.498v106.331zM384.127 917.333h105.524v-106.331h-105.524v106.331zM555.002 917.333h106.038v-106.331h-106.038v106.331zM148.899 745.901v-105.485h-106.232v105.485h106.232zM148.899 403.506v-104.352h-106.232v104.352h106.232zM148.899 575.639v-105.266h-106.232v105.266h106.232zM148.899 128.25h-106.232v105.515h106.232v-105.515zM489.651 128.25h-105.524v105.515h105.524v-105.515zM319.755 128.25h-106.498v105.515h106.498v-105.515zM725.756 640.415v105.485h106.389v-105.485h-106.389zM725.756 470.34v105.266h106.389v-105.266h-106.389zM725.756 811.002v106.331h106.389v-106.331h-106.389z" />
<glyph unicode="&#xe962;" glyph-name="icon-toolbox" data-tags="icon-toolbox" d="M938.667 704h-234.667v106.667c0 47.128-38.205 85.333-85.333 85.333v0h-213.333c-47.128 0-85.333-38.205-85.333-85.333v0-106.667h-234.667c-35.346 0-64-28.654-64-64v0-554.667c0-35.346 28.654-64 64-64v0h853.333c35.346 0 64 28.654 64 64v0 554.667c0 35.346-28.654 64-64 64v0zM405.333 810.667h213.333v-106.667h-213.333v106.667zM868.48 320c-18.931-62.265-75.838-106.795-143.147-106.795s-124.216 44.53-142.869 105.738l-0.277 1.058h-140.373c-18.931-62.265-75.838-106.795-143.147-106.795s-124.216 44.53-142.869 105.738l-0.277 1.058h143.147v85.333h-143.147c18.931 62.265 75.838 106.795 143.147 106.795s124.216-44.53 142.869-105.738l0.277-1.058h140.373c18.931 62.265 75.838 106.795 143.147 106.795s124.216-44.53 142.869-105.738l0.277-1.058h-143.147v-85.333z" />
<glyph unicode="&#xe963;" glyph-name="icon-forbidden" data-tags="icon-forbidden" d="M512 917.333c-260.267 0-469.333-209.067-469.333-469.333s209.067-469.333 469.333-469.333 469.333 209.067 469.333 469.333-209.067 469.333-469.333 469.333zM128 448c0 89.6 32 172.8 85.333 238.933l537.6-537.6c-66.133-53.333-149.333-85.333-238.933-85.333-211.2 0-384 172.8-384 384zM810.667 209.067l-537.6 537.6c66.133 53.333 149.333 85.333 238.933 85.333 211.2 0 384-172.8 384-384 0-89.6-32-172.8-85.333-238.933z" />
</font>
</defs>
</svg>
