<?xml version="1.0" encoding="utf-8"?>
<!-- Generator: Adobe Illustrator 21.1.0, SVG Export Plug-In . SVG Version: 6.00 Build 0)  -->
<svg version="1.1" id="图层_1" xmlns="http://www.w3.org/2000/svg" xmlns:xlink="http://www.w3.org/1999/xlink" x="0px" y="0px"
	 viewBox="0 0 854 429" style="enable-background:new 0 0 854 429;" xml:space="preserve">
<style type="text/css">
	.st0{fill-rule:evenodd;clip-rule:evenodd;}
	.st1{fill:#FFFFFF;}
	.st2{font-family:'MicrosoftYaHei';}
	.st3{font-size:12px;}
</style>
<path  id="jichang" class="map-area" attr-data="{'name':'机场分局','num':'22,100'}" class="st0" d="M25.9,201.3l19.7-8.4l10.3,15c0,0,1.6-1.9,2.8-0.9c1.2,0.9,0.9,2.8,0.9,2.8l2.8-0.9l3.8,2.8c0,0-6,2.2-5.6,4.7
	c0.4,2.5,5.9,5.5,8.5,10.3c2.5,4.8,2.7,9.9,2.8,11.3c0.1,1.3,4.3,6.2,3.8,9.4c-0.6,3.1-5.4,2.4-10.3,3.8c-5,1.4-13.2,9.4-13.2,9.4
	L42.8,237c0,0-2.6-6.6-4.7-10.3c-4.1-7.6-4.5-3.4-5.6-4.7c-2.8-3.2-3.8-6.6-3.8-6.6l0.9-11.3L25.9,201.3z"/>
<path id="baoan" class="map-area" attr-data="{'name':'宝安区','num':'52,144'}" class="st0" d="M217.7,162.9c0,0-2.8,7.2-2.9,8.3c-0.2,1.1-8.7,13.8-8.9,14.9c-0.2,1.1,2,6.2,2,6.2l3.1,5.4l-0.1,5.3
	c0,0-3,4.3-3.2,4.9c-0.2,0.6-2.4,3-2.6,3.6c-0.2,0.6-1.8,2.2-1.8,2.2l-5.1-2.8l-5.3-0.9l-3.7,2.6l-4.1-4.1l-7.7,2.1
	c0,0-4.4,3.7-5.1,5.4c-0.6,1.7-1.8,5.1-1.8,5.1s-0.4,2.1-1.4,2.6c-1,0.4-6.3,1.8-6.3,1.8s-0.5,3.2-0.5,4.4c0,1.3,0.1,3.6,0.1,3.6
	s0.1,2.7,0.7,3.8c0.7,1,0.5,4,0.5,4l-2.7,2.2l-0.8,3.4l2.4,4.4c0,0,1.6,3.3,1.2,4c-0.4,0.6-2.8,3.6-3.5,4.3c-0.6,0.6-2,3.2-2,3.8
	c0,0.6,1.4,4.4,1.4,4.4l2.2,2.5c0,0-2,3.6-2.6,4.1c-0.6,0.4-1.8,3.8-1.8,3.8l1.5,2.9l1.9,1.6l0.3,3.4l-1.2,3.2l-4.3,3.5l-3.5,3
	c0,0-2.2,4.5-2.6,5.1c-0.4,0.6-2,2.4-2.7,3c-0.6,0.6-2,5.3-2,5.3s-0.6,1.9-1.8,3c-1.2,1.1-4.1,4.1-4.1,4.1s-4.1,2.4-5,3.5
	c-0.8,1.1-1.8,2.2-2.4,3.2c-0.6,1.1-2,2.2-2,2.2s-2,2.1-3.1,2.6c-0.2,0.1-0.6,0.3-1.1,0.6l-0.4-1l-4.9-1.6l1.2-2.8l-4-2.2l-15.4-2.1
	l-4.4-6l-7.3,1.7l-4.3-2l2.8-5.3L83,301l1.3-8.5l-13.6-14l-0.4-8.4l-4.4-6.2l-2.1-9l-2.7-0.6l-5.3,3.9l-2.9,1.1
	c2.4-2.2,8.2-7.3,12.1-8.4c5-1.4,9.8-0.6,10.3-3.8c0.6-3.1-3.7-8.1-3.8-9.4c-0.1-1.3-0.3-6.5-2.8-11.3c-2.5-4.8-8.1-7.9-8.5-10.3
	c-0.4-2.5,5.6-4.7,5.6-4.7l-3.8-2.8l-2.8,0.9c0,0,0.3-1.9-0.9-2.8c-1.2-0.9-2.8,0.9-2.8,0.9l-10.3-15L26.2,201
	c-2.6-1.6-6.2-4.6-9.5-9.5c-5.9-8.7-7.4-19.6-7.4-19.6l-8.9-19.8l-0.3-13L3,128.3l-1.9-8.6l6.1-8.4l20.6-8.5l2.8-5.1l-1.8-3.5
	l-1.6-12l8.7-4.2l1-2.3l1.1-4.7l2.1-1.5l1.7,2.7l4.4-0.1l2.9-1.3L49,64.4l4.5-4.1l11.1-0.3l1.3-7.6c0,0,7.8,2.1,10.4-5.9
	c2.5-8.1-6.2-20-6.2-20l11.5-11l10.5-0.3l10.1-1.3l6.2-2.7l3.4-5.8c0,0,7.8-5.7,8.9-5.9c1-0.2,6,3.2,6.6,3.2
	c0.6,0,10.9,6.5,10.9,6.5l5.6,4.9l6.3,0.3c0,0,5.6-4.1,6.2-4.8c0.6-0.6,8.3-3.8,8.3-3.8l10.2,6.3l-0.2,6.7c0,0-1,2.2-1.7,3.8
	l-22.5-1.6l-10.9,0.3l-5.6,3l-10.6,11.6l-5.3,7l0.3,10.2l-2.7,4.3c0,0-5.4,1.3-5.7,1.4c-0.3,0.1-11.4-0.6-11.4-0.6l-4.6,7.3
	c0,0,0.4,9.7,0.3,10.1c-0.1,0.4,4.2,7.1,4.6,7.8c0.4,0.7,6.3,9.5,6.7,9.8c0.3,0.3,10.2,12.3,10.2,12.3l0.8,7c0,0-1.2,10.4-1.3,11.2
	c-0.1,0.7,0.4,6.1,0.3,6.6c-0.1,0.5,1.2,4.5,1.4,4.8c0.2,0.3,1.4,2.7,1.4,2.7s-1.8,4.1-2.2,4.6c-0.4,0.4-5.1,2.1-5.1,2.1l-2.6,2.6
	c0,0,0.2,2.7,0.6,3.7c0.4,0.9,4,5.6,4,5.6l0.1,2.6l-3,4.9c0,0-3,2.4-3,2.7c0,0.3,1.7,3.1,1.7,3.1s4.2,0.5,5,0.8
	c0.7,0.3,8.3-0.8,9.1-1.1c0.8-0.2,4.6-5.6,4.6-5.6s3.2-0.3,3.7-0.1c0.4,0.2,4.6,4,4.6,4s3,0.5,3-0.4c0.1-0.8,0-4.3,0-4.3
	s1-5.1,1-6.4c0.1-1.4,0.1-3.2,1-4.1c0.9-1,0.7-1.6,3.7-2.6c3-1,9-2.6,9.3-2.7c0.3,0,13,1.4,13.2,1.8c0.2,0.4,9.4-2.1,9.4-2.1
	l2.4-2.4l3.5,1.6l7.3-6.4l2.7-1.1l4.2,3.8l3.4,4.3l13.9-3.4l0.1,5.7l-0.9,6.3L217.7,162.9z"/>
<path id="guangming" class="map-area" attr-data="{'name':'光明区','num':'26,100'}" d="M139.8,21.2l-5.6,3l-10.6,11.6l-5.3,7l0.3,10.2l-2.7,4.3c0,0-5.4,1.3-5.7,1.4c-0.3,0.1-11.4-0.6-11.4-0.6l-4.6,7.3
	c0,0,0.4,9.7,0.3,10.1c-0.1,0.4,4.2,7.1,4.6,7.8c0.4,0.7,6.3,9.5,6.7,9.8c0.3,0.3,10.2,12.3,10.2,12.3l0.8,7c0,0-1.2,10.4-1.3,11.2
	c-0.1,0.7,0.4,6.1,0.3,6.6c-0.1,0.5,1.2,4.5,1.4,4.8c0.2,0.3,1.4,2.7,1.4,2.7s-1.8,4.1-2.2,4.6c-0.4,0.4-5.1,2.1-5.1,2.1l-2.6,2.6
	c0,0,0.2,2.7,0.6,3.7c0.4,0.9,4,5.6,4,5.6l0.1,2.6l-3,4.9c0,0-3,2.4-3,2.7c0,0.3,1.7,3.1,1.7,3.1s4.2,0.5,5,0.8
	c0.7,0.3,8.3-0.8,9.1-1.1c0.8-0.2,4.6-5.6,4.6-5.6s3.2-0.3,3.7-0.1c0.4,0.2,4.6,4,4.6,4s3,0.5,3-0.4c0.1-0.8,0-4.3,0-4.3
	s1-5.1,1-6.4c0.1-1.4,0.1-3.2,1-4.1c0.9-1,0.7-1.6,3.7-2.6c3-1,9-2.6,9.3-2.7c0.3,0,13,1.4,13.2,1.8c0.2,0.4,9.4-2.1,9.4-2.1
	l2.4-2.4l3.5,1.6l7.3-6.4l2.7-1.1l4.2,3.8l3.4,4.3l13.9-3.4l6.6-5.6l11.5-11.7l5.1-6.2l6-5.4l-4.9-10l-1-5.9l3.6-7l-9.1-12.6
	l-2.2-13.2l-1.7-8.6l-11.3-7.5l-0.7-3.6c0,0-7.7-5.7-8.3-5.7c-0.6,0-11-2-11-2l-8-7.8l-8.8-0.6c0,0-4.9-1.4-5.3-2.2
	c-0.4-0.8-2-2.5-1.6-3.5c0.1-0.3,0.4-0.9,0.6-1.5l-22.5-1.6L139.8,21.2z"/>
<path id="longhua" class="map-area" attr-data="{'name':'龙华区','num':'32,468'}" d="M264.4,282.1l7.3-1.2l17.1,2.5l1.3-4.9l3.3-3.2l6.2,4.9l0.1-3.2l5.3-5.4l2.1-6.4l-7.5-6.8l-10.6-3.3l-0.1-5.3l-4.9-11.9
	l-1.3-11.3l2-3.4l0.4-17.5l-0.2-8.8l2-5.5l1.1,1.2l3.8-0.5l3.3-4.1l9.2-0.2l6.6,1.9l5.6,4.7l0.1,3.4l2.8,3.5l5.2-1.6l6.2-3.9
	l3.9-5.6l-4.1-3.7l-2.9-5.2l-0.4-14.7l-0.3-12.2l1.6-1.3l4.8-0.1l3.5-2.4l1.8-4.9l2.8-5.5l4.3-6.9l-4.4-4.7c0,0-4.1-2.4-4.3-3
	c-0.2-0.6-3.5-7.3-3.5-7.3l-2.7-7.3l-1.8-3.1c0,0-3.6-1.6-4.6-0.9c-1,0.7-4.4,1.4-4.4,1.4l-8.5,5.9l-4.4,0.5l-3-1c0,0-3.1-4.3-3.1-5
	c0-0.6-1.8-5-1.8-5l-0.7-4.4c0,0-3.8-0.5-4.4-0.1c-0.6,0.4-6,2-6,2l-4.2,0.3l0.3-5.5l0.9-4.4l-0.3-2.9l-6.5,1.2l-3.1,2.2l-4.8,0.3
	c0,0-3.8-0.1-5.1-1.1c-1.3-1-10.6-2.7-10.6-2.7l-8.1,4.8l-6.6-2.1l-3.6,7l1,5.9l4.9,10l-6,5.4l-5.1,6.2L220,137.6l-6.6,5.6l0.1,5.7
	l-0.9,6.3l5,7.7c0,0-2.8,7.2-2.9,8.3c-0.2,1.1-8.7,13.8-8.9,14.9c-0.2,1.1,2,6.2,2,6.2l3.1,5.4l-0.1,5.3c0,0-3,4.3-3.2,4.9
	c-0.2,0.6-2.4,3-2.6,3.6c-0.2,0.6-1.8,2.2-1.8,2.2l-2.4-1.3l1.7,4.2l3.3,6.2l6.4,2.4l7,0.1l6,3l2,5.3l2.6,1.8l8.6,2.9l2.3,2.9
	c0,0,1.9,2.2,2,4.4c0.1,2.2,0.2,7.3,0.2,7.3l3.3,4l2.9,4.2l4.5,2.6l2,2.8l0.2,6c0,0-0.9,3.5,0.1,4.4c1,0.9,0.1,4.4,0.1,4.4l-1.6,0.3
	l5.8,2.7L264.4,282.1z"/>
<path id="futian" class="map-area" attr-data="{'name':'福田区','num':'16,970'}" class="st0" d="M308.9,282.3l3.6,4.5l8.1,0.9l12.7,4.3l4.8,9.1l-0.1,37.4l-10.8-2.9l-8.1,1.9l-10.3,15.6l-7.7,1.5l-9.3,15.4
	l-2.5,2.4l-13.2-5.6l-1.8-4l-7.5-13.5l-13.7-0.9l-5.3-1.8l-5.8-5.1l-2.5,0.9l-1.8,3.6l-1.8,1.9l-12.8-6.6l3.2-5.7l5.9-3l0.8-3.8
	l0.7-8.2l0.2-6c0,0,3-4.8,4-5.2c0.9-0.3,0.2-4.4,0.2-4.4l-2.7-5.3l2.1-2.3c0,0,0.6-2.2,0.8-4.1c0.3-1.9,1.4-5.7,1.4-5.7l5-3l3.7-2.3
	l5.9-1.1l5.8,2.7l4.4-2l7.3-1.2l17.1,2.5l1.3-4.9l3.3-3.2l6.2,4.9l0.1-3.2l4-4L308.9,282.3z"/>
<path  id="nanshan" class="map-area alarm" attr-data="{'name':'南山区','num':'48,100'}" d="M232.4,332.8l0.8-3.8l0.7-8.2l0.2-6c0,0,3-4.8,4-5.2c0.9-0.3,0.2-4.4,0.2-4.4l-2.7-5.3l2.1-2.3c0,0,0.6-2.2,0.8-4.1
	c0.3-1.9,1.4-5.7,1.4-5.7l5-3l3.7-2.3l7.5-1.5c0,0,0.9-3.5-0.1-4.4c-1-0.9-0.1-4.4-0.1-4.4l-0.2-6l-2-2.8l-4.5-2.6l-2.9-4.2l-3.3-4
	c0,0-0.1-5-0.2-7.3c-0.1-2.2-2-4.4-2-4.4l-2.3-2.9l-8.6-2.9l-2.6-1.8l-2-5.3l-6-3l-7-0.1l-6.4-2.4l-3.3-6.2l-1.7-4.2l-2.8-1.5
	l-5.3-0.9l-3.7,2.6l-4.1-4.1l-7.7,2.1c0,0-4.4,3.7-5.1,5.4c-0.6,1.7-1.8,5.1-1.8,5.1s-0.4,2.1-1.4,2.6c-1,0.4-6.3,1.8-6.3,1.8
	s-0.5,3.2-0.5,4.4c0,1.3,0.1,3.6,0.1,3.6s0.1,2.7,0.7,3.8c0.7,1,0.5,4,0.5,4l-2.7,2.2l-0.8,3.4l2.4,4.4c0,0,1.6,3.3,1.2,4
	c-0.4,0.6-2.8,3.6-3.5,4.3c-0.6,0.6-2,3.2-2,3.8c0,0.6,1.4,4.4,1.4,4.4l2.2,2.5c0,0-2,3.6-2.6,4.1c-0.6,0.4-1.8,3.8-1.8,3.8l1.5,2.9
	l1.9,1.6l0.3,3.4l-1.2,3.2l-4.3,3.5l-3.5,3c0,0-2.2,4.5-2.6,5.1c-0.4,0.6-2,2.4-2.7,3c-0.6,0.6-2,5.3-2,5.3s-0.6,1.9-1.8,3
	c-1.2,1.1-4.1,4.1-4.1,4.1s-4.1,2.4-5,3.5c-0.8,1.1-1.8,2.2-2.4,3.2c-0.6,1.1-2,2.2-2,2.2s-2,2.1-3.1,2.6c-0.2,0.1-0.6,0.3-1.1,0.6
	l5.3,3.6l-0.6,5.7l-2.3,6.8l-7.7,3.2l-11.4,6.8l-0.2,4.2l0.3,2l0.1,1.3l1.4,2.9l-0.2,1.6l0.5,3.4l-1.9,2.7l1.2,3.9l0.6,3.2l2.1,5.3
	l2.4,7.5l1.3,3.9l2.9,6.7l6.3,12.5l2.4-2.3l1.6-0.9l1.8,16.4l5.7-6.3l3.4-7l-0.1-4.5l0.3-2.5l2.3-1.7l5.9-2.3l5.3-1.9l2.2-2.3
	l-3.2-6.8l4.1-3.5l5.6,0.5l13.4-1.4l-0.1-3.2l-6.7-6.4l-4-24.3l12.6-7.9l25.1-3.6l19.5-2.2l3.2-5.7L232.4,332.8z"/>
<path id="luohu" class="map-area" attr-data="{'name':罗湖区,'num':'23,000'}" class="st0" d="M441.5,292.5c0,0-3.1,2-4,2.6c-0.9,0.7-1.8,2.6-1.8,2.6l8.4,6.7l-11.2,5.3l-1.4,2.4l-1.6,0.1l-18.3-1.4
	l-11.7-3.9l-6.8,4.2l-3.8,8.7l-5.7,7.3l-12.7,3.9l-8.4-0.6l-13.5,10.2l-0.6,0l-7.3-1.2l-2.9-0.8l0.1-37.4l-4.8-9.1l-12.7-4.3
	l-8.1-0.9l-3.6-4.5l-4.9-9.3l1.3-1.4l2.1-6.4l8.3-3.4l8.3,3.3l11.3,10.1l9.1-0.2l15.5,1.5l10.7-0.3l15.7-16.2l20.5-10.9l17.4-1.7
	l6.7,7.7l0.2,7.3l4.4-0.1l5.4,2.4l4.9,5.6l3.4,9.1l-1.7,7L441.5,292.5z"/>
<path id="yantian" class="map-area" attr-data="{'name':'盐田区','num':'22,100'}" d="M553.6,238.5l-8.9-1.4l-4.5-4.6l-6.3-0.5l-2.4,4.8l-5.4,9.6l-2.9-3.1l-6.1-3.9l1.4-6.7l1.7-7.2l-5.5-5.4l-5.9-7.4l-6.1-2.7
	l-2.5,0.1l-0.2,0.8l-7.9,4l-1.8,5.3l0.2,6.6l6,12.1l-5.6,3.5l-16.5,0.4l-7.4,6.3l-4.3,16.2c0,0-1.7,9-2.6,10.5
	c-0.9,1.4-6.4,7.3-6.4,7.3l-5.1-0.3l-0.8,3.4l-6.1,6.2c0,0-3.1,2-4,2.6c-0.9,0.7-1.8,2.6-1.8,2.6l8.4,6.7l-11.2,5.3l-1.4,2.4
	l14.6-0.6l11.6,1.8l1.7,9.6l4.6,0.9l9.1-13.1l8.2-9l4.8-0.3l4.4,1.4l2.3-1.5l1.3-7.2l5.6-1.6l5.1,0.7l-0.1-5.5l-1.8-2.9l12.3-5.4
	l15.2,4.7l4.8-0.1l2-3.8l3.4-8.7l6.6-4.8l4.9,2.4l2.3,1.4l10.1-8l5.4,6.2l0.1,3.8l2.5-0.1l10.4-4.7l0.7-4.2l-1.4-3.8l-6.5,0.2
	l-4.6,0.1l-2.6-4.1l1.1-8.2l1.8-7l-5.5-0.6L553.6,238.5z"/>
<path id="dayawan" class="map-area" attr-data="{'name':'大亚湾区','num':'23,000'}" class="st0" d="M812.2,237.9l-0.9-1.9l0.9-2.8l-0.9-1.9l0.9-4.7l2.8-1.9l1.9-0.9l2.8-2.8l2.8-2.8l1.9-1.9l0.9-1.9v-3.8
	c0,0,0.7-3.1-0.9-2.8c-1.6,0.3-4.2,3.5-6.6,5.6c-2.4,2.2-5.7,4.3-6.6,4.7c-0.9,0.4,0,0,0,0s-2.1-1.5-3.8-0.9
	c-1.6,0.6,1.3,5.2,1.9,6.6c0.6,1.3-0.5,2.1-2.8,2.8c-2.3,0.8-9.4,7.5-9.4,7.5h-2.8c0,0-4,2-4.7,2.8c-0.7,0.8,1.4,3,1.9,3.8
	c0.4,0.7-1.9,1.9-1.9,1.9l-1.9-0.9c0,0-5,0.8-6.6,3.8c-1.6,3,3.4,4.4,2.8,6.6c-0.6,2.2-7.5,7.5-7.5,7.5s-6.3-0.4-9.4,0
	c-3.1,0.4-2.4,4.2-4.7,5.6c-2.3,1.5-5.6,0-5.6,0L754,268v5.6l8.5,1.9l3.8-1.9v-0.9l3.8-0.9h5.6v2.8l0.9,2.8l1.9-0.9l2.8-2.8l1.9-4.7
	l0.9-0.9l1.9-2.8l1.9-2.8l2.8-4.7l4.7-1.9l2.8-2.8l4.7-0.9l3.8-4.7l5.6-2.8V237.9z"/>
<path id="dapeng" class="map-area" attr-data="{'name':'大鹏新区','num':'23,000'}" class="st0" d="M854.5,356.8l-3,5.1l-3.4,5.8l-4.6,2l-5.1,5l-13.9,0.3l-3.9,5.4l-7.7,1l-1.1,5.1l-4,0.1l-7-1.7l-7.6,8l-5.5-0.1
	l-8.1-4.8l-8,0.6L759.4,402l-0.5,2.6l5.1,3.7l0.1,2.3l-10,3.4l-5.2,8.5l-10.7,0.2l-7.7-3.9l-0.1-5.7l-0.5-7.3l-10.5-1.3l-4.3-5.1
	l2.4-3.8l0.7-4.4l-2.4-3.7l1.4-2.1l0.8-3.4l-5.5-2.6l-2.6-3.1l5.3-6.9l-5.7-7.6l2.6-5.5l5.9-0.4c0,0-1.6-5.2-1.6-5.9
	c0-0.6,2.9-2.8,2.9-2.8l2.4-3.8l-3-1.4l-0.1-2.1l-0.1-4l-3.7-4.7l-3.6-0.3l1-3.4l-1.2-5.9l-9.7-1.4l-6.2-6.2l-0.3-11.8l-6-5.5
	l-4.8,1l-9.6,1.3l-5-7l2.1-7.2l-5.1-9.6l-5.9-8.5c0,0-8.5-4.4-9.1-4.4c-0.6,0-6.8-1.1-6.8-1.1l-1.2-5l-3.8-1.2l-5.2,3.1l-4.5-5.4
	l-8.1-2.7l-7.3,1.2l-12.2,8.5l-4.7-2.6l-5.7-0.1l-4.6,10.6l-4-0.1l-0.4,0.2l0.7-4.2l-1.4-3.8l-6.5,0.2l-4.6,0.1l-2.6-4.1l1.1-8.2
	l3.1-11.9l5.6-2.7l6.5,1.1l8.4,7.2l6.3,0.3l-0.1-2.3l-2.4-3.7l0.3-3l3.6-0.1l1.6-3.6l-0.9-3.8l5.1-7.7l6.7,6.4l3.2,2.9l2-4l2.6-6.6
	l7.3-2.3l10-1.7l3.9-4.5l10.3-0.3l6.1-11.9l2.4,1.6l5.5,0.7l6-1.8c0,0,0,0,8.3-5.5c8.3-5.5,3.4-0.1,3.4-0.1s6.8,2.6,8.1,3.4
	c1.3,0.8,6.4,2.8,6.4,2.8l1.5,1.6c0,0,8.4-1.5,9-1.5c0.6,0,6.2-2.9,6.6-3.7c0.4-0.9,7.3-4,7.3-4l6.8,1.5l6,4.1l0.1,5.9
	c0,0-4.3,6-5.7,7.3c-1.4,1.3-4,9.4-4,9.4l6.2,3.6l5.1-5l3.1-3.4l3.1-0.1l4.9,2.2l3.6-6.2l9.3,2.3l15,2.8l21.8-2.4l3.5-3.5l3.9-2.8
	l5.5,2.2l1.4-3l5.1,0.5l2.4,2l6.8,1.1c0,0-0.8,3.4-1.6,6.8v-3.4c0,0,0.7-3.1-0.9-2.8c-1.6,0.3-4.2,3.5-6.6,5.6
	c-2.4,2.2-5.7,4.3-6.6,4.7c0,0-2.1-1.5-3.8-0.9c-1.6,0.6,1.3,5.2,1.9,6.6c0.6,1.3-0.5,2.1-2.8,2.8c-2.3,0.8-9.4,7.5-9.4,7.5h-2.8
	c0,0-4,2-4.7,2.8c-0.7,0.8,1.4,3,1.9,3.8c0.4,0.7-1.9,1.9-1.9,1.9l-1.9-0.9c0,0-5,0.8-6.6,3.8c-1.6,3,3.4,4.4,2.8,6.6
	c-0.6,2.2-7.5,7.5-7.5,7.5s-6.3-0.4-9.4,0c-3.1,0.4-2.4,4.2-4.7,5.6c-2.3,1.5-5.6,0-5.6,0L754,268v5.6l0.3,2.2l-3.5-2.2l-9.6,1.1
	l-7,5.9l1.1,20l-3.9,11.4l7-0.3l7.7,1.4l5.7,1.7l1.1-4.5l6-2.7l-1.5-2.9l2.6-3.2l6.3-0.2l2.2,2.9l-1.6-6.1l3.7-1.6l4.1,3.1l2.4-5.1
	l4.5,3.7l1.9,10.5l3.4,3.3l6.5,1.1l3.8,7.3l9,0.2l4.5,2.8l7.2,0.5l4.1,3.3l6.3,0.5l8-4.2l2.7,4.9l-2.5,6.9l16,14.6L854.5,356.8z
	 M811.3,218.2c0,0-0.1,0-0.2,0.1C811.2,218.3,811.2,218.3,811.3,218.2z"/>
<path   id="pingshan"" class="map-area alarm" attr-data="{'name':'坪山去','num':'48,100'}" class="st0" d="M665.9,176.6l-6.2,5.6l-3.9,5.4l-0.1,5.9l2.9,1.9l-6.1,11.9l-10.3,0.3l-3.9,4.5l-10,1.7l-7.3,2.3l-2.6,6.6l-2,4
	l-3.2-2.9l-6.7-6.4l-5.1,7.7l0.9,3.8l-1.6,3.6l-3.6,0.1l-0.3,3l2.4,3.7l0.1,2.3l-6.3-0.3l-8.4-7.2l-6.5-1.1l-5.6,2.7l-1.3,4.9
	l-5.5-0.6l-12.3-1.6l-8.9-1.4l-4.5-4.6l-6.3-0.5l-2.4,4.8l-5.4,9.6l-2.9-3.1l-6.1-3.9l1.4-6.7l1.7-7.2l-5.5-5.4l-5.9-7.4l-6.1-2.7
	l-2.5,0.1l2.4-9.8l-0.4-15l6.6-0.2l13.2-0.3l3.6-5.2l14.6-0.4l5.6-3.1l-0.2-7.1l3.1-9.6l1.7-6.6l5.5-5l9.1-0.2l6-3.5l7.6-0.2
	l2.4,1.2c-0.1-0.4-0.2-0.8,0-1.3c0.5-1.8,5.6-4.6,5.6-7.5c0.1-4.8-1.8-12.4,0-17.8c1.3-4.1,4.1-9.9,7.5-13.1
	c1.8-1.7,4.3-3.9,6.6-6.6c4-4.6,2.3-6.8,2-7.1l3.6,3.9l5.1,1.6l7.4,0.4l3.9-2.4l2.1-9.9l5.3-7.1l5.4-3.7l5.3,3.4
	c0,0,6.1,8.7,6.3,9.9c0.2,1.3,5.2,5.3,5.2,5.3l-0.1,4.2l-2.9,8.1l-4,9.4l-3.7,2.6l-9.7,6.8l0,1.3l0,6.3l2.1,7.9l5.8,3.4l8.1,5.7
	l3.1,5.8l6,3.8l7,1.1l5.1,3.7l0.3,5.3L665.9,176.6z M602.9,92L602.9,92C602.8,91.9,602.8,91.9,602.9,92z"/>
<path id="longgang" class="map-area alarm-type" attr-data="{'name':'龙岗区','num':'48,880'}" d="M585.8,139.4l-3.2,5.8l-2.8,0.1l-1.5-1.2l0.4,0.1l-7.6,0.2l-6,3.5l-9.1,0.2l-5.5,5l-1.7,6.6l-3.1,9.6l0.2,7.1l-5.6,3.1
	l-14.6,0.4l-3.6,5.2l-13.2,0.3l-6.6,0.2l0.4,15l-2.6,10.7l-7.9,4l-1.8,5.3l0.2,6.6l6,12.1l-5.6,3.5l-16.5,0.4l-7.4,6.3l-4.3,16.2
	c0,0-1.7,9-2.6,10.5c-0.9,1.4-6.4,7.3-6.4,7.3l-5.1-0.3l0.9-3.5l-3.4-9.1l-4.9-5.6l-5.4-2.4l-4.4,0.1l-0.2-7.3l-6.7-7.7l-17.4,1.7
	l-20.5,10.9l-15.7,16.2l-10.7,0.3l-15.5-1.5l-9.1,0.2l-11.3-10.1l-8.3-3.3l-8.3,3.4l-7.5-6.8l-10.6-3.3l-0.1-5.3l-4.9-11.9
	l-1.3-11.3l2-3.4l0.4-17.5l-0.2-8.8l2-5.5l1.1,1.2l3.8-0.5l3.3-4.1l9.2-0.2l6.6,1.9l5.6,4.7l0.1,3.4l2.8,3.5l5.2-1.6l6.2-3.9
	l3.9-5.6l-4.1-3.7l-2.9-5.2l-0.4-14.7l-0.3-12.2l1.6-1.3l4.8-0.1l3.5-2.4l1.8-4.9l2.8-5.5l4.3-6.9l1.2,1.3l2.5,0.6l5.1,0.9l5.1,3.9
	l7,2.3l7.4,0.2l2.9,4.8l-1.4,12.7l11.2,1.8l1.1,3.8l2.7,6.7l5,6.8l-1.5,8.5l-0.7,5.3l-6.3-1.1l-3.7,1.6l2.5,6.3l4.7,3.9l10.8,3.3
	l6-3.1l7.5-3.8l0.5-6.5l2.3-7.4l6-2.5l1.7-4.5l-4.4-4.3l2.4-4.9l6.8-3.5l-0.9-11.8l0.5-6.1l1.1-5.7l6-3.1l2.4-4.7l2-11.2l1.1-6.1
	c0,0-6.8-11.4-6.8-12c0-0.6-5.5-11.4-5.5-11.4l-6.9-3.2l-3.2-7.9l-3-9.2l3.8-6.2l11.5-1.3l7.1-2.1l2.6-6.4l9.5,1.9l3.2-5.1l4.3-4.7
	l3,2.2l6.3,7l3.9,4.1l6.6,4.7l2.5,6.3l8.7,1.9l5.4-3.1l4.4-7.5l3.3-4.3l4.2-1.8l4.7,1.6l5-1l2.6-5.7l4.1-4.5l3.6,1.8l4.4,7l5.8-2
	c0,0,5.9-6.9,6.5-7.3c0.6-0.4,9.4-0.7,9.4-0.7l5.2-0.1l3.9-4.7l9.4-0.2c0,0,10,4.6,10.6,4.8c0.6,0.2,0.7,4,0.7,4l-2.4,4.3l4.1,4.7
	l-1.3,6.3l-5.7,0.6l-3,4.9l2.6,2.9l7.2,4l0.7,2.1l0.8,6.3c0,0,2.9,1.8,5.7,1.7c2.9-0.1,5.7-2.1,5.7-2.1s9.3,4.9,6.6,8.4
	c-2.6,3.3-9.9,8.4-13.2,13.1c-8.4,12.2-4.7,22.5-4.7,22.5L585.8,139.4z"/>
<text transform="matrix(1 0 0 1 436.333 189.9355)" class="st1 st2 st3">龙岗区</text>
<text transform="matrix(1 0 0 1 441.958 206.9355)" class="st1 st2 st3 map-text">98%</text>
<text transform="matrix(1 0 0 1 489.333 258.9355)" class="st1 st2 st3">盐田区</text>
<text transform="matrix(1 0 0 1 494.958 275.9355)" class="st1 st2 st3 map-text">96%</text>
<text transform="matrix(1 0 0 1 367.333 287.9355)" class="st1 st2 st3">罗湖区</text>
<text transform="matrix(1 0 0 1 372.958 304.9355)" class="st1 st2 st3 map-text">90%</text>
<text transform="matrix(1 0 0 1 271.333 319.9355)" class="st1 st2 st3">福田区</text>
<text transform="matrix(1 0 0 1 276.958 336.9355)" class="st1 st2 st3 map-text">85%</text>
<text transform="matrix(1 0 0 1 166.333 308.9355)" class="st1 st2 st3">南山区</text>
<text transform="matrix(1 0 0 1 171.958 325.9355)" class="st1 st2 st3 map-text">87%</text>
<text transform="matrix(1 0 0 1 26.333 220.9355)" class="st1 st2 st3">机场分局</text>
<text transform="matrix(1 0 0 1 37.958 237.9355)" class="st1 st2 st3 map-text">88%</text>
<text transform="matrix(1 0 0 1 100.333 198.9355)" class="st1 st2 st3">宝安区</text>
<text transform="matrix(1 0 0 1 105.958 215.9355)" class="st1 st2 st3 map-text">85%</text>
<text transform="matrix(1 0 0 1 132.333 74.9355)" class="st1 st2 st3">光明新区</text>
<text transform="matrix(1 0 0 1 143.958 91.9355)" class="st1 st2 st3 map-text">88%</text>
<text transform="matrix(1 0 0 1 242.333 163.9355)" class="st1 st2 st3">龙华新区</text>
<text transform="matrix(1 0 0 1 253.958 180.9355)" class="st1 st2 st3 map-text">90%</text>
<text transform="matrix(1 0 0 1 570.333 179.9355)" class="st1 st2 st3">坪山新区</text>
<text transform="matrix(1 0 0 1 581.958 196.9355)" class="st1 st2 st3 map-text">90%</text>
<text transform="matrix(1 0 0 1 683.333 288.9355)" class="st1 st2 st3">大鹏新区</text>
<text transform="matrix(1 0 0 1 694.958 305.9355)" class="st1 st2 st3 map-text">95%</text>
<text transform="matrix(1 0 0 1 763.333 237.9355)" class="st1 st2 st3">大亚湾分区</text>
<text transform="matrix(1 0 0 1 780.958 254.9355)" class="st1 st2 st3 map-text">90%</text>
</svg>
